<?xml version="1.0" encoding="UTF-8"?>
<svg id="Layer_1" data-name="Layer 1" xmlns="http://www.w3.org/2000/svg" viewBox="0 0 90 36">
  <defs>
    <style>
      .cls-1, .cls-2 {
        stroke-width: 0px;
        fill: {{ theme.color }};
      }

      .cls-2 {
        fill: #fff;
      }
    </style>
  </defs>
  <g id="Fortepan_US_Mobile_Logo" data-name="Fortepan US Mobile Logo">
    <path id="Path_93-2" data-name="Path 93-2" class="cls-1" d="M2.47,18.27v-.83c.07-.36.15-.71.26-1.05.15-1,.5-1.95,1.05-2.8.31-.52.71-.98,1.19-1.36.75-.58,1.54-1.1,2.36-1.58.53-.31,1.09-.57,1.66-.79l2.15-.88c.88-.39,1.88-.7,2.8-1.05,1.18-.48,2.36-.88,3.64-1.36,1.23-.44,2.15-.74,3.24-1.18,1.05-.39,1.93-.74,2.89-1.1.53-.22,1.05-.39,1.53-.57.82-.2,1.66-.28,2.5-.26.58,0,1.16.09,1.71.26.83.26,1.67.66,2.5.96s1.71.7,2.5,1.01l2.5.96,2.98,1.14c1.05.39,2.06.79,3.11,1.23,1.19.46,2.35,1,3.46,1.62,1.04.56,2,1.23,2.88,2.02.39.38.72.81,1.01,1.27.4.69.69,1.45.83,2.23.11.5.15,1.02.13,1.53.03.68-.03,1.35-.17,2.01-.13.67-.35,1.32-.66,1.93-.39.74-.89,1.42-1.49,2.01-.3.27-.62.52-.96.75-.57.31-1.1.66-1.71.96-.57.26-1.1.53-1.67.75-1.05.48-2.15.88-3.24,1.27l-5.3,2.1-3.77,1.49c-.74.31-1.53.61-2.32.96-.64.28-1.32.47-2.01.57-.45.04-.91.04-1.36,0-.5-.04-1-.13-1.49-.26-.48-.17-.96-.35-1.45-.57-.88-.39-1.84-.74-2.72-1.05-1.18-.39-2.36-.88-3.55-1.36-1.01-.39-2.01-.79-2.98-1.18-.83-.31-1.66-.61-2.5-.88s-1.53-.61-2.32-.88c-.96-.35-1.9-.76-2.8-1.23-1.11-.63-2.12-1.42-2.98-2.36-.2-.23-.38-.48-.53-.75-.27-.54-.47-1.12-.61-1.71-.14-.44-.25-.9-.31-1.36.09-.21.09-.45,0-.66Z"/>
    <path id="Path_94-2" data-name="Path 94-2" class="cls-2" d="M25.76,16.95h3.85c.37,0,.67-.28.7-.65,0-.22,0-.43.05-.65h1.67q.18,0,.18.18v4.73c0,.12-.08.22-.21.23,0,0-.02,0-.03,0h-1.72v-1.07c-.01-.14-.08-.27-.19-.37-.14-.1-.3-.16-.46-.18h-3.94v5.56c.02.44.35.81.79.88h.7c.23,0,.14,0,.14.14v1.72c0,.19,0,.23-.23.23h-4.83c-.14,0-.19,0-.19-.19v-1.86c.26,0,.53-.04.79-.09.43-.06.74-.45.7-.88v-13.12c0-.27-.1-.54-.28-.74-.11-.13-.25-.23-.42-.28-.34-.05-.68-.05-1.02,0-.12,0-.22-.08-.23-.21,0,0,0-.02,0-.03v-1.76s.04-.09.09-.09h10.47v.09c0,1.34.09,2.46.09,3.85,0,.18,0,.23-.23.28h-1.99c-.12,0-.22-.08-.23-.21,0,0,0-.02,0-.03v-1.34c.05-.09-.05-.28-.14-.28-.15-.07-.3-.11-.46-.14h-3.34c-.1,0-.18.09-.19.18v5.98c.09-.05.09.05.09.09h0Z"/>
  </g>
  <g>
    <path class="cls-1" d="M71,20.22c-.26,1.62-1.35,3.16-3.81,3.16-3.02,0-4.11-2.2-4.11-4.94s1.39-4.93,4.19-4.93c2.59,0,3.58,1.65,3.68,3.14h-1.91c-.19-.79-.51-1.57-1.83-1.57-1.6,0-2.12,1.62-2.12,3.35,0,1.83.5,3.39,2.14,3.39,1.28,0,1.67-.89,1.85-1.6h1.92Z"/>
    <path class="cls-1" d="M83.04,18.4c0,2.76-1.33,4.98-4.36,4.98s-4.23-2.28-4.23-5.01c0-2.36,1.29-4.86,4.36-4.86,2.9,0,4.22,2.3,4.22,4.88ZM76.48,18.38c0,1.92.76,3.44,2.28,3.44,1.67,0,2.27-1.42,2.27-3.43,0-1.77-.59-3.33-2.3-3.33-1.59,0-2.25,1.46-2.25,3.31Z"/>
  </g>
</svg>
