<?xml version="1.0" encoding="UTF-8"?>
<svg id="Layer_1" data-name="Layer 1" xmlns="http://www.w3.org/2000/svg" viewBox="0 0 90 36">
  <defs>
    <style>
      .cls-1, .cls-2 {
        stroke-width: 0px;
        fill: {{ theme.color }};
      }

      .cls-2 {
        fill: #fff;
      }
    </style>
  </defs>
  <g id="Fortepan_US_Mobile_Logo" data-name="Fortepan US Mobile Logo">
    <path id="Path_93-2" data-name="Path 93-2" class="cls-1" d="M2.47,18.27v-.83c.07-.36.15-.71.26-1.05.15-1,.5-1.95,1.05-2.8.31-.52.71-.98,1.19-1.36.75-.58,1.54-1.1,2.36-1.58.53-.31,1.09-.57,1.66-.79l2.15-.88c.88-.39,1.88-.7,2.8-1.05,1.18-.48,2.36-.88,3.64-1.36,1.23-.44,2.15-.74,3.24-1.18,1.05-.39,1.93-.74,2.89-1.1.53-.22,1.05-.39,1.53-.57.82-.2,1.66-.28,2.5-.26.58,0,1.16.09,1.71.26.83.26,1.67.66,2.5.96s1.71.7,2.5,1.01l2.5.96,2.98,1.14c1.05.39,2.06.79,3.11,1.23,1.19.46,2.35,1,3.46,1.62,1.04.56,2,1.23,2.88,2.02.39.38.72.81,1.01,1.27.4.69.69,1.45.83,2.23.11.5.15,1.02.13,1.53.03.68-.03,1.35-.17,2.01-.13.67-.35,1.32-.66,1.93-.39.74-.89,1.42-1.49,2.01-.3.27-.62.52-.96.75-.57.31-1.1.66-1.71.96-.57.26-1.1.53-1.67.75-1.05.48-2.15.88-3.24,1.27l-5.3,2.1-3.77,1.49c-.74.31-1.53.61-2.32.96-.64.28-1.32.47-2.01.57-.45.04-.91.04-1.36,0-.5-.04-1-.13-1.49-.26-.48-.17-.96-.35-1.45-.57-.88-.39-1.84-.74-2.72-1.05-1.18-.39-2.36-.88-3.55-1.36-1.01-.39-2.01-.79-2.98-1.18-.83-.31-1.66-.61-2.5-.88s-1.53-.61-2.32-.88c-.96-.35-1.9-.76-2.8-1.23-1.11-.63-2.12-1.42-2.98-2.36-.2-.23-.38-.48-.53-.75-.27-.54-.47-1.12-.61-1.71-.14-.44-.25-.9-.31-1.36.09-.21.09-.45,0-.66Z"/>
    <path id="Path_94-2" data-name="Path 94-2" class="cls-2" d="M25.76,16.95h3.85c.37,0,.67-.28.7-.65,0-.22,0-.43.05-.65h1.67q.18,0,.18.18v4.73c0,.12-.08.22-.21.23,0,0-.02,0-.03,0h-1.72v-1.07c-.01-.14-.08-.27-.19-.37-.14-.1-.3-.16-.46-.18h-3.94v5.56c.02.44.35.81.79.88h.7c.23,0,.14,0,.14.14v1.72c0,.19,0,.23-.23.23h-4.83c-.14,0-.19,0-.19-.19v-1.86c.26,0,.53-.04.79-.09.43-.06.74-.45.7-.88v-13.12c0-.27-.1-.54-.28-.74-.11-.13-.25-.23-.42-.28-.34-.05-.68-.05-1.02,0-.12,0-.22-.08-.23-.21,0,0,0-.02,0-.03v-1.76s.04-.09.09-.09h10.47v.09c0,1.34.09,2.46.09,3.85,0,.18,0,.23-.23.28h-1.99c-.12,0-.22-.08-.23-.21,0,0,0-.02,0-.03v-1.34c.05-.09-.05-.28-.14-.28-.15-.07-.3-.11-.46-.14h-3.34c-.1,0-.18.09-.19.18v5.98c.09-.05.09.05.09.09h0Z"/>
  </g>
  <g>
    <path class="cls-1" d="M71.22,19.66c0-1.63.03-3.58.07-4.66h-.08c-.43,1.99-1.41,5.53-2.25,8.25h-1.69c-.62-2.29-1.62-6.32-2.01-8.27h-.08c.08,1.12.12,3.2.12,4.85v3.42h-1.8v-9.6h2.92c.69,2.24,1.55,5.59,1.81,7.04h.02c.21-1.24,1.3-4.77,2.02-7.04h2.81v9.6h-1.88v-3.58Z"/>
    <path class="cls-1" d="M79.46,13.64v9.6h-1.96v-9.6h1.96Z"/>
  </g>
</svg>
