<?xml version="1.0" standalone="no"?>
<!DOCTYPE svg PUBLIC "-//W3C//DTD SVG 20010904//EN"
 "http://www.w3.org/TR/2001/REC-SVG-20010904/DTD/svg10.dtd">
<svg version="1.0" xmlns="http://www.w3.org/2000/svg"
 width="700.000000pt" height="700.000000pt" viewBox="0 0 700.000000 700.000000"
 preserveAspectRatio="xMidYMid meet">
<g transform="translate(0.000000,700.000000) scale(0.100000,-0.100000)"
fill="#000000" stroke="none">
<path d="M899 6996 c-2 -2 -25 -6 -50 -9 -210 -25 -452 -157 -595 -323 -113
-131 -177 -252 -225 -424 l-24 -85 -2 -2630 c-2 -2534 -2 -2633 16 -2715 31
-137 54 -200 118 -311 143 -251 395 -428 688 -483 70 -13 400 -15 2665 -16
1656 0 2607 4 2645 10 61 10 68 12 140 29 96 24 250 101 335 168 63 50 167
159 199 207 14 23 31 46 37 53 10 11 43 76 77 153 24 54 46 128 62 210 12 64
14 449 14 2675 0 2540 0 2602 -19 2690 -54 249 -185 457 -380 604 -106 80
-271 157 -376 175 -16 3 -51 10 -79 15 -47 10 -5236 16 -5246 7z"/>
</g>
</svg>
