<svg xmlns="http://www.w3.org/2000/svg" viewBox="0 0 103 28"><title>Asset 10</title><rect width="103" height="28" style="fill:#6e86bc"/><text transform="translate(50.63 17.43)" style="font-size:11px;fill:#f6f6f8;font-family:Gotham-Book, Gotham Book;letter-spacing:0.009987571022727272em">L<tspan x="6.92" y="0" style="letter-spacing:0.049982244318181816em">OGIN</tspan></text><path d="M39.45,14.61V12.83a.39.39,0,0,1,.31-.44c.35-.13,1.16-.13,1.16-.52s0-1,0-1.54A2.77,2.77,0,0,1,43,7.9a2.81,2.81,0,0,1,3.47,2.22,5.09,5.09,0,0,1,0,.56V12.1c0,.12.85.18,1,.22.51.17.51.18.51.71v4.14c0,.28-.06.37-.33.47a14.62,14.62,0,0,1-3.55.57,13.37,13.37,0,0,1-4.32-.56c-.29-.11-.35-.2-.35-.51ZM45.57,12c0-.25,0-.5,0-.74a6.29,6.29,0,0,0,0-1,1.84,1.84,0,0,0-2-1.52,1.87,1.87,0,0,0-1.67,1.81c0,.43,0,.85,0,1.28a.71.71,0,0,0,0,.14A9,9,0,0,1,45.57,12Z" style="fill:#f6f6f8"/></svg>