<?xml version="1.0" encoding="UTF-8"?>
<svg id="Layer_1" data-name="Layer 1" xmlns="http://www.w3.org/2000/svg" viewBox="0 0 981.84 316.67">
  <defs>
    <style>
      .cls-1 {
        isolation: isolate;
      }

      .cls-2 {
        fill: #fff;
      }
    </style>
  </defs>
  <g id="Layer_1-2" data-name="Layer 1">
    <g>
      <path class="cls-2" d="M64.54,312.57c-5-2.8-9-6.5-11.9-11.4-2.9-4.8-4.3-10.3-4.3-16.4s1.5-11.5,4.3-16.4,6.9-8.6,11.9-11.4,10.7-4.1,17-4.1,9.7.9,13.9,2.7c4.2,1.8,7.7,4.3,10.6,7.7l-7.4,7c-4.5-4.8-10-7.3-16.6-7.3s-8.1.9-11.4,2.8c-3.4,1.9-6,4.4-7.9,7.8-1.9,3.3-2.8,7.1-2.8,11.2s.9,7.9,2.8,11.2c1.9,3.3,4.5,5.9,7.9,7.8s7.2,2.8,11.4,2.8c6.6,0,12.1-2.5,16.6-7.4l7.4,7.1c-2.9,3.4-6.4,5.9-10.7,7.7-4.2,1.8-8.9,2.7-13.9,2.7s-11.9-1.4-17-4.1h.1Z"/>
      <path class="cls-2" d="M127.54,312.57c-5.1-2.8-9-6.5-11.9-11.4-2.9-4.8-4.3-10.3-4.3-16.4s1.4-11.5,4.3-16.4,6.9-8.6,11.9-11.4,10.7-4.1,17-4.1,9.7.9,13.9,2.7,7.7,4.3,10.6,7.7l-7.4,7c-4.5-4.8-10-7.3-16.6-7.3s-8.1.9-11.4,2.8c-3.4,1.9-6,4.4-7.9,7.8s-2.8,7.1-2.8,11.2.9,7.9,2.8,11.2,4.5,5.9,7.9,7.8c3.4,1.9,7.2,2.8,11.4,2.8,6.6,0,12.1-2.5,16.6-7.4l7.4,7.1c-2.9,3.4-6.4,5.9-10.7,7.7-4.2,1.8-8.9,2.7-13.9,2.7s-11.9-1.4-17-4.1h.1Z"/>
      <path class="cls-2" d="M633.44,312.57c-5.1-2.8-9-6.5-11.9-11.4-2.9-4.8-4.3-10.3-4.3-16.4s1.4-11.5,4.3-16.4,6.9-8.6,11.9-11.4,10.7-4.1,17-4.1,9.7.9,13.9,2.7,7.7,4.3,10.6,7.7l-7.4,7c-4.5-4.8-10-7.3-16.6-7.3s-8.1.9-11.4,2.8c-3.4,1.9-6,4.4-7.9,7.8s-2.8,7.1-2.8,11.2.9,7.9,2.8,11.2,4.5,5.9,7.9,7.8,7.2,2.8,11.4,2.8c6.6,0,12.1-2.5,16.6-7.4l7.4,7.1c-2.9,3.4-6.4,5.9-10.7,7.7-4.2,1.8-8.9,2.7-13.9,2.7s-11.9-1.4-17-4.1h.1Z"/>
    </g>
    <g>
      <path class="cls-2" d="M350.14,289.27c2,2.6,3,5.9,3,9.8s-2.1,9.5-6.2,12.4-10.2,4.4-18.1,4.4h-30.8v-62h29c7.3,0,13,1.4,16.9,4.3,4,2.9,5.9,6.8,5.9,11.8s-.7,5.8-2.1,8.1-3.4,4.2-5.8,5.5c3.4,1.1,6.1,3,8.1,5.6h0l.1.1ZM309.54,262.87v17.1h16.3c4,0,7.1-.7,9.3-2.2,2.1-1.5,3.2-3.6,3.2-6.3s-1.1-5-3.2-6.4c-2.2-1.5-5.2-2.2-9.3-2.2h-16.3ZM341.54,297.87c0-6-4.5-8.9-13.4-8.9h-18.6v17.9h18.6c8.9,0,13.4-3,13.4-8.9h0v-.1Z"/>
      <path class="cls-2" d="M390.84,293.97v21.9h-11.5v-21.7l-24.4-40.3h12.3l18.2,30.2,18.3-30.2h11.3l-24.3,40.1h.1Z"/>
    </g>
    <g>
      <path class="cls-2" d="M824.74,314.67c-4.5-1.4-8-3.2-10.6-5.4l4-8.9c2.5,2,5.7,3.6,9.3,4.9,3.7,1.3,7.4,1.9,11.1,1.9s8-.7,10.3-2.2,3.4-3.4,3.4-5.9-.6-3.2-1.9-4.4-2.9-2-4.8-2.7c-2-.6-4.6-1.4-8-2.2-4.7-1.1-8.5-2.2-11.5-3.4s-5.4-2.9-7.5-5.3-3.1-5.6-3.1-9.7.9-6.5,2.8-9.3,4.7-5,8.4-6.7,8.3-2.5,13.8-2.5,7.5.5,11.2,1.4,6.8,2.3,9.5,4.1l-3.6,8.9c-2.7-1.6-5.5-2.8-8.5-3.6-3-.8-5.8-1.2-8.6-1.2-4.5,0-7.9.8-10.1,2.3-2.2,1.5-3.3,3.6-3.3,6.1s.6,3.2,1.9,4.3c1.3,1.1,2.9,2,4.8,2.7s4.6,1.4,8,2.2c4.6,1.1,8.4,2.2,11.3,3.3s5.5,2.9,7.6,5.3,3.1,5.5,3.1,9.6-.9,6.5-2.8,9.3-4.7,5-8.5,6.6-8.4,2.5-13.8,2.5-9.4-.7-13.9-2h0Z"/>
      <path class="cls-2" d="M915.34,301.47h-31l-6.1,14.4h-11.9l27.9-62h11.3l28,62h-12l-6.2-14.4h0ZM911.44,292.47l-11.7-27.1-11.6,27.1h23.3Z"/>
    </g>
    <g>
      <path class="cls-2" d="M351.64.07h9.6c.4,0,.9.2,1.3.2,2,.2,4.1.3,6.1.5,2.4.2,4.9.5,7.3.9,2,.3,4.1.8,6.1,1.2,2.5.5,4.9,1.2,7.3,1.9,3.2,1,6.4,2.1,9.6,3.4,4,1.7,8,3.6,11.7,5.8,5.1,2.9,9.9,6.3,14.4,10s8.7,7.8,12.6,12.2c3.5,3.9,6.7,8,9.6,12.4,2.3,3.5,4.5,7.2,6.4,11,1.6,3.2,3,6.5,4.3,9.9.5,1.5,1.1,3,1.5,4.5.6,1.9,1.1,3.7,1.6,5.6.4,1.3.7,2.7,1,4.1.3,1.2.5,2.4.7,3.6.3,1.5.6,3.1.7,4.6.3,2.3.5,4.6.7,7,.2,2.5.3,5,.4,7.5,0,2.9,0,5.8-.2,8.7-.1,2.2-.3,4.4-.5,6.7-.2,2.2-.6,4.5-.9,6.7-.4,2.4-.9,4.8-1.5,7.2-.6,2.2-1.1,4.4-1.8,6.5-.9,2.9-1.9,5.7-3.1,8.5-1.9,4.5-4,8.8-6.6,12.9-3.5,5.8-7.5,11.1-12.1,16.1-4.6,5.1-9.7,9.7-15.1,13.9-4.8,3.7-9.8,7-15.1,9.9-4,2.2-8.2,4.1-12.5,5.7-2.2.8-4.5,1.6-6.7,2.3-1.4.4-2.8.8-4.2,1.2-1.2.3-2.5.6-3.7.9-1.6.3-3.2.6-4.8.9-1.7.3-3.4.6-5.1.8s-3.5.4-5.2.5c-2.3.2-4.5.3-6.8.3-4,.1-7.9,0-11.8-.4-2.2-.2-4.4-.4-6.5-.7-1.9-.3-3.7-.6-5.6-1-2.3-.5-4.5-1-6.8-1.6-2.8-.7-5.6-1.6-8.3-2.6-3-1.1-6-2.3-8.8-3.7-5.5-2.7-10.8-5.8-15.8-9.4-4.2-3-8.1-6.2-11.8-9.7-5.8-5.4-11-11.3-15.5-17.7-3.4-4.7-6.3-9.7-8.9-14.9-1.3-2.7-2.5-5.4-3.5-8.2-.5-1.4-1.1-2.9-1.5-4.4-.6-1.8-1.1-3.7-1.6-5.5-.4-1.6-.8-3.1-1.1-4.7-.4-1.7-.7-3.5-.9-5.2-.3-1.8-.6-3.6-.7-5.4-.2-2.2-.4-4.4-.5-6.6-.4-5.6-.2-11.2.3-16.9.3-2.9.6-5.9,1.2-8.8.4-2.2.8-4.4,1.4-6.7.6-2.5,1.4-5.1,2.1-7.6.9-2.8,1.9-5.6,3.1-8.3,1.6-3.8,3.5-7.5,5.5-11.1,3.3-5.7,7.1-11.1,11.3-16.1,4.1-4.9,8.6-9.5,13.5-13.7,5-4.3,10.4-8.1,16.1-11.4,3.4-2,6.9-3.7,10.5-5.2,2.7-1.1,5.4-2.2,8.1-3.1,1.5-.5,3.1-1,4.6-1.4,1.1-.3,2.3-.6,3.5-.9,1.2-.3,2.3-.5,3.5-.8,1.3-.3,2.6-.5,4-.7,1.2-.2,2.4-.4,3.6-.5,1.6-.2,3.3-.4,4.9-.5,1.5-.1,3-.2,4.5-.3.4,0,.7-.1,1.1-.2h0l-.2-.1ZM356.74,19.57c-4.2,0-8.5.4-12.6.9-3.1.4-6.2,1-9.3,1.7-3.2.8-6.3,1.7-9.4,2.9-3.9,1.5-7.7,3.2-11.3,5.3-3.5,2-6.8,4.2-10,6.7-2,1.5-3.9,3.2-5.8,4.8-3.9,3.5-7.4,7.4-10.7,11.5-3.2,4-6.1,8.2-8.6,12.7-5.5,9.7-8.8,20.1-10.2,31.1-.4,2.9-.6,5.9-.6,8.9,0,3.9,0,7.9.5,11.8.3,2.8.7,5.6,1.3,8.4.8,4.1,2,8,3.4,11.9,2.9,7.9,7,15.2,12.1,21.9,2.9,3.8,6.1,7.4,9.6,10.8,7,6.9,14.9,12.7,23.7,17,4.5,2.2,9.2,4,14.1,5.4,4.5,1.2,9,2.1,13.6,2.6,2.8.3,5.6.5,8.4.5,4.6,0,9.2-.1,13.8-.7,2.4-.3,4.7-.7,7.1-1.2,4.6-1,9.1-2.4,13.5-4.1,5.8-2.3,11.3-5.3,16.4-8.8,5.4-3.7,10.3-7.8,14.9-12.4,2.1-2.1,4-4.2,5.9-6.4,2.8-3.4,5.3-7,7.6-10.8,2-3.4,3.7-7,5.2-10.7,1.4-3.5,2.5-7.2,3.4-10.9,1-4.2,1.7-8.5,2.1-12.8.2-2.4.3-4.9.4-7.3.1-5.7-.2-11.5-1.1-17.1-.4-2.6-.9-5.1-1.5-7.6-.7-2.8-1.5-5.6-2.5-8.3-2-5.4-4.5-10.6-7.6-15.6-2.9-4.6-6.2-8.9-9.9-12.9-2.4-2.6-4.9-5.1-7.6-7.4-3.2-2.8-6.6-5.5-10.2-7.8-2.1-1.4-4.2-2.7-6.5-3.9-3.6-1.9-7.4-3.6-11.2-5-3.1-1.1-6.4-2-9.6-2.8-2.6-.6-5.2-1.1-7.8-1.4-1.7-.2-3.4-.4-5.1-.5-2.5-.2-5.1-.3-7.6-.4h-.3Z"/>
      <path class="cls-2" d="M385.64,125.47h-12.3v52.3c-.4.1-32.9.2-33.6,0v-52.3h-12.3v-43.9c0-2.2.7-4,2.3-5.5,1.2-1,2.5-1.6,4.1-1.7h44.5c3.1,0,5.3,1.5,6.7,4.2.4.7.5,1.5.6,2.3v44.7h0v-.1Z"/>
      <path class="cls-2" d="M356.64,68.57c-2.1,0-4.2-.2-6.2-.8-4.1-1.2-6.8-3.9-8.1-8.1-.9-2.9-1-6-.7-9,.2-2.1.7-4.1,1.7-6,1.2-2.3,3.1-3.9,5.5-5,1.7-.8,3.5-1.1,5.4-1.3s3.7-.1,5.6,0c2.3.3,4.4.9,6.4,2.2,1.9,1.3,3.3,3.1,4.2,5.2.6,1.6,1,3.3,1.1,5,0,1.4.1,2.7,0,4.1,0,2.1-.5,4.1-1.3,6-1.2,2.8-3.3,4.9-6.1,6.1-1.9.8-4,1.2-6,1.3h-1.5v.3Z"/>
    </g>
    <g>
      <path class="cls-2" d="M108.74.07h7.2c1.2.3,2.4.2,3.6.3,1.8.2,3.6.4,5.4.6.4,0,.7,0,1.1.1.6,0,1.1.2,1.7.3h.4c1.1.2,2.2.4,3.3.6,1,.2,1.9.4,2.9.6.8.2,1.6.4,2.5.6.8.2,1.7.5,2.5.7.6.2,1.3.4,1.9.6s1.3.4,1.9.6c.7.2,1.4.5,2.1.7.6.2,1.2.4,1.7.6s.9.4,1.4.5c.9.3,1.8.6,2.6,1,.8.3,1.6.7,2.4,1.1.8.3,1.6.7,2.3,1s1.4.7,2.1,1.1c.3.2.7.3,1,.5,1.1.6,2.3,1.2,3.4,1.8,1,.5,1.9,1.1,2.9,1.7,1,.6,1.9,1.3,2.9,1.9.7.4,1.4.9,2,1.3.8.5,1.5,1.1,2.2,1.6.8.6,1.6,1.1,2.4,1.8,1.1.9,2.3,1.8,3.4,2.7,1.8,1.5,3.5,3,5.2,4.6,2.5,2.3,4.9,4.7,7.1,7.3,1.1,1.2,2.2,2.5,3.2,3.7.8,1,1.5,2,2.3,3,.6.9,1.3,1.7,1.9,2.6.5.7.9,1.4,1.4,2,.5.8,1.1,1.6,1.6,2.5.6,1,1.2,2.1,1.9,3.1.5.9,1,1.8,1.5,2.7.4.7.7,1.3,1,2,.4.7.7,1.4,1.1,2.1.4.8.7,1.5,1,2.3.2.5.4.9.6,1.4.2.4.3.7.5,1.1.3.8.7,1.7,1,2.6.2.5.4,1,.6,1.6.2.5.4,1,.5,1.4.3.8.5,1.5.8,2.2.2.6.4,1.2.6,1.9.2.7.4,1.3.6,2,.2.6.3,1.1.5,1.7.2.8.4,1.5.6,2.3.2.9.4,1.8.6,2.6v.2c.2,1,.4,1.9.6,2.9.2,1.1.4,2.2.6,3.3v.4c.2,1.3.4,2.5.5,3.8.2,2.1.5,4.1.5,6.2s0,.4,0,.5c.2.8.2,1.5.2,2.3v10.7c0,.7,0,1.4-.2,2.1-.1.5-.1,1.1-.1,1.6,0,1.2,0,2.4-.3,3.6,0,.4,0,.8-.1,1.2,0,.8-.2,1.5-.3,2.3,0,.3,0,.7-.1,1.1,0,.6-.2,1.2-.3,1.7,0,.3,0,.6-.1.9,0,.5-.2,1-.3,1.5,0,.2,0,.3-.1.5-.2,1-.3,2-.6,3-.2.9-.4,1.7-.7,2.6-.2.8-.4,1.5-.6,2.3-.2.8-.4,1.5-.7,2.3-.2.6-.4,1.2-.6,1.8-.2.8-.5,1.5-.8,2.3-.2.6-.4,1.2-.6,1.8s-.4,1.1-.7,1.7c-.2.4-.3.9-.5,1.3-.3.9-.6,1.7-1,2.6-.3.8-.7,1.6-1.1,2.4-.3.8-.7,1.5-1,2.3-.3.7-.7,1.4-1.1,2.1-.3.6-.7,1.3-1,2-.3.6-.7,1.2-1,1.8s-.7,1.2-1,1.7c-.4.6-.7,1.2-1.1,1.8-.5.8-1,1.6-1.6,2.4-.5.7-1,1.4-1.4,2.1-.5.7-1,1.4-1.5,2.1-.5.6-.9,1.3-1.4,1.9-.9,1.1-1.8,2.3-2.8,3.4-1.3,1.5-2.6,3-4,4.4-1.3,1.4-2.6,2.7-4,4-1,.9-2,1.8-3,2.7-.7.6-1.4,1.3-2.2,1.9-1,.8-2,1.6-3,2.4-.8.6-1.6,1.3-2.4,1.9-.9.6-1.8,1.3-2.7,1.9-.7.5-1.4,1-2.1,1.4-.6.4-1.1.7-1.7,1.1-.5.4-1.1.7-1.6,1.1-.6.4-1.1.7-1.7,1-.9.5-1.8,1-2.6,1.5-.6.4-1.3.7-2,1-.7.4-1.4.7-2.1,1.1-.3.2-.6.3-1,.5-.7.3-1.4.6-2.2,1-1.1.5-2.2,1-3.3,1.5-.5.2-1,.4-1.5.6-.4.2-.9.3-1.3.5-.9.4-1.8.7-2.7,1.1-1,.4-2,.7-3.1,1-.6.2-1.3.4-1.9.6-.4.1-.9.3-1.4.4-.7.2-1.4.4-2.1.6-.8.2-1.6.4-2.4.6h-.3c-.9.2-1.7.4-2.6.6-1,.2-2,.4-3,.6-.3,0-.5,0-.8.1-.5,0-1,.2-1.5.2h-.3c-1.4.2-2.8.4-4.2.6-.6,0-1.1.1-1.7.2-.4,0-.8.1-1.2.1-1.2,0-2.5.2-3.7.3-1.4.2-2.9.1-4.3.1h-7.3c-.9,0-1.8,0-2.7-.2-.6-.1-1.2-.1-1.8-.1-.8,0-1.7-.2-2.5-.3h-.6c-1.5-.2-3.1-.4-4.6-.6-1.1-.2-2.2-.4-3.4-.6-1-.2-2-.4-3-.6-.8-.2-1.7-.4-2.5-.6-.8-.2-1.6-.4-2.5-.6-.7-.2-1.3-.4-1.9-.6-.8-.2-1.6-.5-2.4-.7-.6-.2-1.2-.4-1.8-.6-.5-.2-1-.4-1.5-.6-.7-.2-1.3-.5-2-.7-.4-.2-.8-.3-1.2-.5-.8-.3-1.7-.6-2.4-1-1.1-.5-2.2-1-3.3-1.5-.4-.2-.7-.3-1.1-.5-1.1-.5-2.2-1.1-3.2-1.6-.6-.3-1.3-.6-1.9-1-.4-.2-.7-.4-1.1-.6-.3-.2-.7-.4-1-.6-.9-.5-1.8-1.1-2.7-1.6-.8-.5-1.6-.9-2.3-1.4-.7-.4-1.3-.9-2-1.3-.7-.5-1.5-1-2.2-1.6-.8-.6-1.7-1.2-2.5-1.9-1-.8-2-1.6-3-2.4-1.1-.9-2.2-1.8-3.2-2.8-1.6-1.4-3.1-2.9-4.7-4.4-1.1-1.1-2.2-2.3-3.3-3.4-.8-.8-1.5-1.6-2.3-2.5-1.1-1.3-2.1-2.5-3.2-3.8-.7-.8-1.4-1.7-2-2.6-.6-.9-1.2-1.7-1.9-2.6-.5-.7-.9-1.3-1.4-2-.4-.6-.8-1.1-1.1-1.7-.4-.6-.7-1.1-1.1-1.7-.4-.6-.7-1.2-1-1.8s-.6-1.1-1-1.6c-.4-.7-.8-1.4-1.2-2.1-.4-.7-.7-1.3-1.1-2-.3-.6-.6-1.3-.9-1.9-.4-.8-.8-1.6-1.1-2.4-.2-.4-.3-.7-.5-1.1-.2-.5-.4-.9-.6-1.4-.4-.8-.7-1.7-1.1-2.5-.2-.5-.4-1.1-.6-1.6-.2-.4-.3-.8-.4-1.2-.2-.6-.4-1.1-.6-1.7-.2-.6-.4-1.2-.6-1.8-.2-.6-.3-1.1-.5-1.7-.3-.9-.5-1.9-.8-2.8-.2-.8-.5-1.5-.6-2.3-.2-.8-.4-1.6-.6-2.5-.2-1-.4-2-.6-3.1v-.3c-.2-1.2-.4-2.3-.6-3.5,0-.4-.1-.7-.2-1.1,0-.6-.2-1.2-.2-1.8v-.9c-.3-1.4-.2-2.9-.4-4.4-.6-4.2-.2-8.4-.3-12.6v-2.5c.2-1.9.4-3.8.6-5.6,0-.4,0-.8.1-1.2,0-.6.2-1.2.2-1.7.2-1.3.4-2.6.6-3.8.2-1.1.4-2.2.7-3.3v-.4c.2-.9.3-1.8.6-2.7.2-.8.4-1.5.6-2.3.2-.6.3-1.3.5-1.9.2-.8.5-1.7.8-2.5.2-.6.4-1.2.6-1.8.2-.6.4-1.2.6-1.8.2-.6.4-1.3.7-1.9.2-.5.4-1.1.6-1.6.2-.4.3-.8.5-1.2.3-.8.6-1.7,1-2.5.3-.8.7-1.5,1.1-2.3.2-.4.4-.8.5-1.2.2-.5.4-.9.7-1.4.2-.3.3-.7.5-1,.3-.7.7-1.4,1-2s.6-1.1.9-1.7c.4-.7.8-1.3,1.1-2,.3-.6.7-1.1,1.1-1.7.3-.5.6-1,.9-1.5.5-.8,1-1.5,1.5-2.2s1-1.5,1.5-2.2c.6-.9,1.2-1.7,1.9-2.5,1.1-1.4,2.2-2.8,3.3-4.1.9-1.1,1.8-2.1,2.7-3.2,2-2.3,4.1-4.4,6.4-6.5,1.2-1.2,2.4-2.3,3.7-3.5,1.1-1,2.2-1.9,3.3-2.8,1-.8,1.9-1.6,2.9-2.4.9-.7,1.8-1.3,2.7-1.9.6-.5,1.3-.9,1.9-1.4.8-.5,1.6-1,2.4-1.6.5-.3,1-.6,1.5-.9.9-.5,1.8-1.1,2.7-1.6.6-.4,1.2-.7,1.8-1.1.3-.2.7-.4,1-.5.8-.4,1.6-.8,2.3-1.2s1.4-.7,2.2-1c.3-.1.6-.3,1-.4,1.1-.5,2.2-1,3.4-1.5.9-.4,1.8-.7,2.7-1,.5-.2,1-.4,1.5-.6.6-.2,1.1-.4,1.7-.6,1.2-.4,2.4-.8,3.6-1.2.5-.2,1-.3,1.5-.4.8-.2,1.5-.4,2.3-.6.9-.2,1.8-.5,2.7-.7.7-.2,1.4-.3,2.1-.5,1.1-.2,2.2-.4,3.3-.6,1.2-.2,2.5-.4,3.8-.6,1-.1,2-.2,3.1-.3,1.2-.1,2.4-.2,3.5-.3.7,0,1.4-.2,2.2-.2.6,0,1.1,0,1.7-.1h5.7v-.1l.7-.4ZM192.74,80.17v-.8c0-.1,0-.3-.1-.4-.3-.2-.2-.5-.3-.8,0-.2,0-.4-.1-.5-.3-.1-.2-.4-.3-.6,0-.2,0-.4-.2-.5s-.2-.3-.2-.4c0-.2,0-.5-.2-.6-.2-.2-.2-.4-.2-.6,0-.5-.5-.9-.5-1.5h0c-.3-.1-.2-.5-.3-.7s-.3-.4-.4-.7c-.2-.5-.4-1-.6-1.4-.1-.3-.3-.6-.4-.9-.2-.4-.4-.8-.7-1.2-.2-.4-.4-.8-.6-1.2-.2-.5-.5-1-.8-1.4-.2-.3-.4-.7-.6-1.1-.2-.3-.4-.7-.6-1-.4-.6-.7-1.3-1.1-1.9-.3-.5-.7-1-1-1.5-.2-.4-.4-.8-.7-1.1-.5-.7-.9-1.3-1.4-2-.6-.9-1.2-1.7-1.8-2.6-.9-1.1-1.8-2.2-2.8-3.4-.5-.6-.9-1.2-1.4-1.7l-1.5-1.5c-1-1-2-2.1-3-3.1-1.2-1.2-2.5-2.4-3.8-3.5-.9-.8-1.8-1.6-2.7-2.3-1-.8-2.1-1.6-3.2-2.4-.9-.6-1.7-1.3-2.6-1.9-.9-.6-1.8-1.2-2.7-1.8-.8-.5-1.5-1-2.3-1.5-.3-.2-.6-.3-.9-.5-.4-.2-.7-.4-1.1-.6-.4-.2-.7-.4-1.1-.6-.4-.2-.8-.4-1.2-.5,0,0-.1-.1-.2-.1s-.3-.1-.4-.2c-.1,0-.3-.2-.4-.2s-.2-.1-.3-.2c-.4-.2-.8-.4-1.2-.5l-.1-.1c-.1,0-.3-.2-.5-.2-.1,0-.3,0-.4-.1-.3-.4-1-.2-1.3-.7-.6,0-.9-.6-1.5-.5-.3-.3-.7-.4-1.1-.4h-.1c-.1-.3-.4-.2-.6-.3h-.4c-.2-.4-.5-.3-.8-.4h-.2c-.2-.3-.5-.3-.8-.3h-.4c-.3-.3-.7-.3-1.1-.4h-.2c-.2-.3-.6-.3-.9-.3-.1,0-.3,0-.4-.1-.2-.3-.5-.2-.8-.3-.2,0-.5,0-.6-.1-.3-.2-.7-.3-1.1-.3-.2,0-.4,0-.5-.1-.3-.3-.7-.3-1-.3-.2,0-.4,0-.6-.1-.2-.2-.5-.2-.8-.3-.3,0-.6,0-.9-.1-.5-.3-.9-.3-1.4-.3-.2,0-.4,0-.7-.2-.2,0-.4-.2-.6-.2h-1.6c-.3-.2-.6-.2-.9-.3h-1.2c-.2,0-.3,0-.4-.1-.2-.2-.5-.2-.8-.2h-2.6c-.4-.3-.8-.3-1.3-.3h-4c0-.3-.3-.2-.6-.2h-9.2c-3.1,0-.3,0-.5,0-.3.2-.7.2-1,.2-1.3,0-2.6,0-3.8.1-.2,0-.4,0-.6.1s-.4.2-.6.2c-.8,0-1.6,0-2.4.1-.2,0-.4,0-.5.1-.2,0-.3.1-.5.2-.6,0-1.1,0-1.6.1h-.3c-.2.3-.5.2-.7.3h-1.1c-.1,0-.3,0-.3.1,0,.2-.3.2-.4.2h-1.5c-.3.4-.6.2-1,.3h-.8s-.2,0-.2.1c0,.3-.2.2-.3.2h-1.2c-.2.4-.6.3-.9.3-.2,0-.6,0-.7.1-.2.4-.6.2-.9.3-.2,0-.4,0-.5.3,0,0-.2,0-.3.1-.4.1-.9-.1-1.1.4h-1.1c0,.3-.2.2-.3.3-.3,0-.6,0-.9.3-.2.2-.6.2-.9.2h0c0,.3-.4.2-.6.3-.2,0-.5,0-.5.1-.1.4-.4.2-.7.3-.2,0-.4,0-.4.1,0,.3-.3.2-.5.3-.4.2-.8.5-1.3.5,0,.3-.4.2-.6.3-.2,0-.3.1-.4.2-.1,0-.2.2-.3.2-.5,0-.9.4-1.3.6-.5.2-1,.6-1.6.8,0,0-.1.1-.2.1s-.3.1-.4.2c-.1,0-.2,0-.3.1-.4.3-.9.5-1.3.8-.3.2-.6.4-.9.5-.3.2-.7.5-1,.6-.6.3-1.2.6-1.7,1-.8.5-1.5,1-2.3,1.5s-1.6,1.1-2.4,1.6c-.5.3-1,.7-1.5,1-.2.1-.4.3-.6.4-.4.4-.8.7-1.2,1s-.9.6-1.3,1c-.7.6-1.4,1.2-2,1.8-.6.5-1.2,1-1.8,1.5l-1.5,1.5c-.5.5-1,.9-1.5,1.4s-.9,1-1.4,1.5c-.7.8-1.5,1.5-2.2,2.3-.8.8-1.5,1.7-2.2,2.6s-1.4,1.8-2.1,2.7c-.3.5-.7.9-1,1.4-.2.2-.3.5-.5.8s-.5.6-.7.9c-.2.3-.3.6-.5.8-.6.7-1,1.4-1.5,2.2,0,.1-.1.3-.2.4-.4.6-.8,1.1-1.1,1.7-.3.5-.6,1.1-1,1.7-.4.6-.7,1.2-1.1,1.8-.1.2-.3.5-.4.8-.2.4-.3.8-.5,1.2-.3.5-.5,1-.8,1.6-.2.3-.3.7-.5,1-.2.4-.4.8-.6,1.2v.6c-.4.2-.3.5-.4.8,0,0,0,.2-.1.2-.2,0-.2.3-.3.5-.2.5-.3.9-.5,1.4h0c-.2,0-.2.3-.3.5,0,.2,0,.4-.1.7-.2-.1-.2,0-.3.2,0,.3,0,.5-.1.8-.5.1-.3.5-.4.8v.3c-.3,0-.2.3-.3.5,0,.3,0,.6-.1.8,0,0-.1,0-.2-.1,0,.5-.1.9-.2,1.5,0-.1,0-.2-.1-.2h-.1c0,.4-.1.9-.2,1.3,0,0-.1,0-.2-.2,0,.4,0,.9-.1,1.3v.3c-.3,0-.2.2-.2.4,0,.3,0,.7-.1,1v.2h-.2c0,.5-.1,1.1-.2,1.6,0,0-.1,0-.2-.2,0,.7-.1,1.3-.2,1.9h-.2c0,.7-.1,1.3-.2,1.9,0,0-.1,0-.2-.2,0,.8-.1,1.6-.2,2.4,0,0-.1-.2-.2-.3,0,.9-.1,1.8-.2,2.7,0-.1-.1-.2-.2-.3,0,1.3-.1,2.4-.2,3.6,0,0-.1,0-.2-.2v.8c0,1.3,0,2.6-.1,3.8v.4c-.3,0-.2.2-.2.4v9c.2.2.2.5.2.7,0,1.2,0,2.4.1,3.6v.6c.3.3.2.6.2.9,0,.7,0,1.3.1,2v.4c.3.1.2.4.2.6,0,.4,0,.9.1,1.3v.4c.3.2.2.5.2.8,0,.4,0,.8.1,1.2v.3c.3,0,.2.2.2.4,0,.3,0,.7.1,1.1,0,.2,0,.4.1.4.2.1.1.3.2.4.1.5,0,1.1.4,1.6.2.2,0,.6.1.9,0,.1,0,.3.1.4.3.2.2.5.3.8,0,.2,0,.5.1.7.2.2.2.5.3.8,0,.2,0,.5.1.6.3.2.2.6.3.9,0,.2.1.4.2.5,0,0,.1.2.1.3,0,.4.2.8.4,1.1.2.4.3.9.5,1.4s.4,1.1.6,1.6c0,0,0,.1.1.2,0,.1.1.2.2.4.2.6.4,1.1.7,1.7.2.5.4,1,.6,1.4s.4.8.6,1.2c.2.5.5.9.7,1.4.2.4.4.8.6,1.2s.4.8.6,1.1.4.8.6,1.2c.4.6.7,1.2,1.1,1.8.5.8.9,1.6,1.4,2.4.2.3.3.5.5.8.4.5.7,1.1,1.1,1.6.5.7,1,1.5,1.5,2.2.6.8,1.2,1.6,1.9,2.4.7.9,1.3,1.8,2,2.6.5.6,1,1.1,1.5,1.7.6.7,1.2,1.4,1.8,2.1,1.2,1.3,2.4,2.5,3.7,3.7.9.9,1.9,1.8,2.8,2.7,1.2,1.1,2.5,2.2,3.8,3.2,1,.8,2,1.6,3.1,2.4.2.2.5.3.7.5.7.5,1.3,1,2,1.5s1.5.9,2.2,1.4c.9.6,1.8,1.1,2.7,1.7.3.2.6.3.9.5.4.2.7.5,1.1.6.7.3,1.2.8,1.9,1,.3,0,.6.3.9.5.4.2.8.4,1.2.7.2.1.5.3.7.4.5.2,1,.4,1.5.6.6.3,1.2.5,1.8.8,0,0,.1.1.2.1.2,0,.3.1.5.2s.3.1.5.2c.2,0,.4.2.6.2.5.2,1,.4,1.5.5,0,0,.1,0,.2.1.1,0,.3.1.4.2.6.1,1,.5,1.6.6h.1c.2,0,.5.2.7.2s.3,0,.5.1c.4.1.7.2,1.1.4.5.2,1,.3,1.4.5.5.2,1,.2,1.5.4s1,.3,1.5.4h.2c.3.3.8.3,1.2.3.3,0,.6,0,.8.2.3.2.6.2.9.2s.7,0,.9.2c.3.2.6.2.9.2s.7,0,1.1.1c.1,0,.2,0,.3.1.2,0,.3.2.5.2.5,0,1.1,0,1.6.1.1,0,.3,0,.4.1.2.2.3.2.5.2.8,0,1.5,0,2.3.1h.4c.2.3.6.2.9.2,1.2,0,2.3,0,3.4.1h.5c.3,0,.5.2.8.2h9.1c.4,0,.7-.2,1.1-.3,1.2,0,2.4,0,3.7-.1h.9-.2c1-.1,1.9-.2,2.8-.2h.4c.1-.4.4-.2.7-.3.5,0,.9,0,1.4-.1h.3c.2-.4.6-.2.9-.3.4,0,.8,0,1.2-.1,0,0,.2-.1.3-.3.5,0,1.2-.1,1.9-.2,0-.1-.1-.1-.2-.2.5,0,1,0,1.4-.1h.3c0-.4.4-.2.6-.3h.9c0-.3.3-.2.5-.3h1c0-.3.4-.2.6-.3.3,0,.8,0,1-.4h.2c.4,0,.9,0,1.2-.4h.1c.4,0,.8,0,1.1-.4.6,0,1.1-.4,1.7-.5.1,0,.3,0,.4-.1.4-.5,1.1-.2,1.5-.7h.2c.5-.2,1-.4,1.5-.5h0c.2,0,.4-.2.6-.3.1,0,.2,0,.4-.1.4-.2.9-.5,1.3-.7.5-.2.9-.4,1.4-.6h.1c.4-.2.9-.5,1.4-.7.4-.2.8-.4,1.2-.6.4-.2.8-.4,1.2-.7.4-.2.7-.4,1.1-.6.4-.2.8-.5,1.3-.7.6-.3,1.2-.6,1.7-1,.6-.3,1.1-.7,1.6-1.1.6-.4,1.2-.7,1.7-1,1.1-.8,2.2-1.5,3.2-2.3,1.2-.9,2.4-1.7,3.5-2.6,1.8-1.5,3.6-2.9,5.2-4.5,1.8-1.7,3.6-3.4,5.3-5.2,1.3-1.4,2.5-2.9,3.7-4.4.5-.6,1-1.3,1.5-1.9.5-.7,1-1.4,1.5-2.1.5-.7,1-1.5,1.5-2.2.2-.2.3-.5.5-.7.3-.5.7-1,1-1.6s.6-1.2,1-1.7c.3-.6.7-1.1,1.1-1.7.2-.3.3-.6.5-.9.2-.4.3-.9.6-1.2.3-.5.6-1.1.8-1.6,0,0,0-.1.1-.2.1-.2.2-.4.3-.6,0-.1.1-.2.2-.4,0-.2.2-.4.2-.5s.1-.4.2-.5c0-.2.1-.4.2-.5,0-.1,0-.2.1-.3.3-.4.3-1,.6-1.3h0c0-.3.2-.6.3-.9.2-.4.3-.9.5-1.4.1-.3.2-.6.4-.9v-.2c0-.6.6-1.1.5-1.8v-.1c.2-.2.3-.6.3-.9,0-.2,0-.3.1-.5,0-.3.2-.5.3-.8,0-.2,0-.4.1-.5.3-.4.3-.8.3-1.2v-.4c.3-.4.3-.8.4-1.2v-.4c.4-.4.3-.9.4-1.3v-.5c.4-.5.3-1.1.4-1.7v-.3c0-.2.2-.4.2-.6,0-.4,0-.8.1-1.3v-.3c.2-.2.2-.5.2-.7,0-.5,0-1,.1-1.5v-.4c.3-.3.2-.7.3-1,0-.7,0-1.3.1-2v-.5c.3-.5.3-1.1.3-1.7v-3.8c.2-.4.2-.8.2-1.3v-7.8c0-.3,0-.7-.2-1v-4.6c0-.2,0-.4-.1-.5-.2-.2-.2-.4-.2-.6,0-.8,0-1.6-.1-2.4v-.4c-.3-.2-.2-.4-.2-.7v-1.8c-.3-.2-.2-.6-.3-.9v-1.4c-.3-.2-.2-.5-.3-.8v-.9s0-.3-.1-.3c-.3,0-.2-.3-.2-.5v-1.3c-.4-.2-.2-.6-.3-.9,0-.2,0-.6-.1-.7-.3-.2-.2-.5-.3-.8,0-.3,0-.6-.1-.8-.3-.3-.2-.6-.3-.9,0-.2,0-.5-.2-.5-.2-.1-.2-.3-.2-.5v-.6c0-.2-.2-.2-.3-.2h0l-1.2-.6Z"/>
      <path class="cls-2" d="M107.54,90.27c-.6.3-1.1.6-1.7.9-.4.2-.8.4-1.2.6-.4.2-.8.4-1.2.6-.4.2-.7.4-1.1.6-.5.2-.9.5-1.4.7-.4.2-.8.4-1.2.6-.3.2-.6.3-.9.4-.4.2-.8.4-1.2.6-.3.2-.6.3-.9.5-.4.2-.8.4-1.2.6-.3.1-.5.3-.8.4-.4.2-.8.4-1.2.6-.4.3-.8.2-1-.3-.3-.8-.9-1.6-1.4-2.4-.6-.8-1.2-1.6-1.9-2.3-.6-.6-1.3-1-2.1-1.5-.4-.3-.8-.4-1.2-.6,0,0-.2,0-.3-.2,0,0,0-.1-.2-.1-.6-.2-1.1-.4-1.7-.6-.2,0-.3,0-.5-.1-.4-.2-.8-.3-1.3-.3h-3.7c-.3,0-.7.1-1,.2h-.2c-.7,0-1.4.3-2.1.5-.4.1-.8.3-1.2.5-.6.3-1.1.7-1.7,1.1-.8.6-1.5,1.3-2.2,2.1-.6.8-1.1,1.7-1.6,2.6-.2.4-.4.9-.6,1.4-.2.7-.4,1.3-.6,2v.3c-.2,1.3-.6,2.5-.6,3.8,0,.8-.2,1.6-.2,2.4v4c0,1,.2,2,.3,3.1,0,.3.1.6.2.9,0,.2.1.4.1.6,0,.5.1.9.3,1.4.1.2,0,.5.2.7.2.6.4,1.1.7,1.7.2.3.3.7.4,1.1.5,1,1.1,2,1.8,2.9.7.9,1.6,1.8,2.6,2.5.6.4,1.3.8,2,1.2h.3c.6.2,1.3.3,1.9.6.6.2,1.2.3,1.8.3h4.4c.2,0,.5,0,.7-.2.1-.1.4-.1.7-.2.3,0,.7,0,1-.3,0,0,.3,0,.4-.1.2,0,.4-.1.7-.3.3-.2.7-.4,1.1-.6,1.2-.7,2.3-1.5,3.2-2.6.4-.4.8-.9,1.1-1.3.4-.6.7-1.2,1-1.7s.4-1.2,1-1.7c.6,0,1.1.4,1.6.7.8.3,1.5.8,2.2,1.2.7.4,1.4.7,2.1,1.1.3.2.7.3,1,.5.4.2.8.4,1.2.6.8.4,1.7.8,2.5,1.2.8.4,1.6.8,2.4,1.3,0,.2-.1.5-.2.7-.8,1.4-1.7,2.7-2.6,3.9-1.1,1.4-2.3,2.7-3.6,3.9-.7.7-1.5,1.3-2.3,1.9-.9.7-1.8,1.3-2.8,2-.6.4-1.3.7-1.9,1-.7.4-1.4.7-2.2,1.1-.3.2-.7.3-1.1.4-.6.2-1.2.4-1.8.6-.2,0-.4.1-.6.2-.1,0-.2.1-.3.1-.6.2-1.2.3-1.8.4-2.9.5-5.7.8-8.7.6-1.1,0-2.2-.1-3.2-.2-.3,0-.6,0-.9-.1-.6-.1-1.3-.2-1.9-.3-.3,0-.6-.1-.8-.2-.1,0-.3,0-.4-.1-.8-.2-1.6-.3-2.3-.6-.6-.2-1.1-.4-1.7-.6-.5-.2-.9-.4-1.4-.6-.8-.4-1.6-.7-2.3-1.1-.6-.3-1.2-.7-1.8-1-.7-.4-1.3-.9-1.9-1.3-.7-.5-1.4-1.1-2-1.6-1-.9-2-1.9-2.8-3-.3-.4-.7-.8-1-1.2-.4-.6-.8-1.2-1.2-1.8-.3-.6-.7-1.1-1-1.7-.2-.5-.5-.9-.7-1.4s-.5-.9-.7-1.4c-.2-.6-.4-1.1-.6-1.7h0c-.3-.7-.4-1.3-.6-1.9,0-.3-.2-.7-.3-1v-.5c-.3-.6-.3-1.2-.4-1.8v-.2c-.5-1.6-.4-3.2-.6-4.8-.2-1.6-.2-3.2-.1-4.8,0-.9.2-1.9.3-2.8,0-.5,0-.9.1-1.4,0-.5.2-1.1.2-1.6,0-.2.1-.4.1-.7,0-.6,0-1.1.3-1.7,0-.2,0-.4.1-.7,0-.3.1-.5.2-.8v-.2c.2-.7.4-1.3.6-2,.2-.5.3-1,.5-1.5.2-.6.5-1.1.7-1.7.1-.3.3-.6.4-.9.6-1,1.2-2.1,1.9-3.1.8-1,1.5-2,2.3-2.9s1.8-1.8,2.8-2.7c1-.9,2.1-1.7,3.2-2.4,1-.7,2.1-1.4,3.3-1.9.8-.4,1.6-.8,2.5-1.1.6-.2,1.2-.4,1.8-.6.6-.2,1.3-.3,1.9-.5,1.5-.4,3-.7,4.6-.8.8,0,1.6-.2,2.4-.2,1.4,0,2.9,0,4.3.1h.5c1.2,0,2.3.2,3.5.4,1,.1,2,.4,3,.6.7.1,1.4.4,2.1.7.5.2,1,.3,1.5.5.9.3,1.8.7,2.7,1.2.6.3,1.3.7,1.9,1,.7.4,1.5.9,2.2,1.4,1.7,1.2,3.2,2.7,4.6,4.3.9,1.1,1.8,2.2,2.5,3.3.3.6.7,1.1,1,1.7,0,.2.1.3.2.5h0l.7.4Z"/>
      <path class="cls-2" d="M170.24,124.77c-.3.5-.5,1-.8,1.5-.5.8-1,1.5-1.5,2.2-.8,1-1.5,2-2.4,2.9-.7.8-1.5,1.6-2.4,2.3-1,.9-2,1.6-3.1,2.4s-1.1.8-1.6,1.1c-.6.4-1.2.7-1.8,1-.8.4-1.6.8-2.3,1.1-.4.2-.7.3-1.1.4-.6.2-1.1.4-1.7.6-.2,0-.4.1-.6.2,0,0-.2,0-.2.1-.8.2-1.6.4-2.5.5-.4,0-.7.1-1.1.2-.3,0-.5.1-.8.1-2,.1-4,.3-6,.2-1.2,0-2.4-.1-3.6-.2-.3,0-.6,0-.9-.1-.4,0-.9-.1-1.4-.2-.4,0-.9-.2-1.3-.3h-.2c-.8-.2-1.6-.3-2.3-.6-.6-.2-1.1-.4-1.7-.6-.5-.2-1.1-.4-1.6-.6-.7-.3-1.4-.6-2-1-.7-.3-1.3-.7-1.9-1.1-.2-.1-.4-.3-.6-.4-1.2-.8-2.3-1.6-3.4-2.6-1.2-1.1-2.2-2.2-3.1-3.5-.5-.7-1-1.4-1.5-2.1-.4-.6-.7-1.2-1-1.8-.4-.7-.7-1.4-1.1-2.2-.2-.5-.4-1-.6-1.5-.2-.6-.4-1.2-.7-1.8,0-.2-.1-.4-.2-.6,0-.3-.2-.6-.3-1v-.2c-.2-.8-.3-1.7-.5-2.5,0-.5-.2-1-.3-1.5,0-.2-.1-.5-.1-.7-.1-1.7-.3-3.3-.4-5-.1-1.8,0-3.6.2-5.4v-.2c0-1.5.3-2.9.5-4.3,0-.2,0-.4.2-.7,0-.2.1-.3.1-.4.2-.8.3-1.6.6-2.4.2-.6.4-1.2.6-1.8.2-.4.3-.9.5-1.3.4-.8.8-1.7,1.2-2.5.3-.6.7-1.3,1.1-1.9.6-.8,1.1-1.7,1.8-2.4,1-1.3,2.1-2.5,3.3-3.6.9-.8,1.9-1.6,2.9-2.3.7-.5,1.4-1,2.1-1.4s1.3-.7,2-1.1c.8-.4,1.6-.7,2.4-1.1.6-.2,1.2-.4,1.9-.6s1.4-.4,2.2-.6c1.1-.2,2.2-.5,3.4-.6.8-.1,1.7,0,2.5-.2,1.8-.2,3.6,0,5.4,0h.4c1,0,2,.2,3.1.3,1.1.2,2.1.4,3.2.6.3,0,.5.2.8.3.7.2,1.4.4,2,.6.5.2,1,.4,1.5.6.4.2.9.4,1.4.6.7.4,1.4.7,2.1,1.1.6.3,1.1.6,1.6,1,1,.7,2,1.4,2.9,2.3s1.8,1.8,2.7,2.8c.6.6,1.1,1.3,1.6,2.1.4.5.7,1,1,1.5s.5,1,.8,1.5v.3c-.5.3-1,.6-1.6.9l-1.2.6c-.4.2-.8.4-1.1.6-.4.2-.7.4-1.1.6-.5.2-.9.5-1.4.7l-1.2.6c-.3.2-.7.3-1,.5-.4.2-.7.4-1.1.6-.9.5-1.9.9-2.8,1.4-.3.2-.7.3-1,.6-.6.4-.8.3-1.1-.3-.6-1.2-1.3-2.3-2.1-3.3s-1.8-1.9-2.9-2.6c-.5-.3-1.1-.6-1.6-.9s-1-.4-1.5-.6c-.6-.3-1.3-.5-2-.5h-4.2c-1.4,0-.2,0-.3,0-.6.2-1.3.4-1.9.4-.8.4-1.7.6-2.4,1.1-.5.3-1,.6-1.4.9-.5.5-1.1,1-1.6,1.5-.6.6-1.1,1.3-1.5,2.1-.2.3-.4.7-.5,1-.3.9-.7,1.8-1,2.7-.3.8-.3,1.7-.6,2.4v.2c0,1.8-.6,3.6-.5,5.4v3.6c0,.7,0,1.4.3,2.1.1.4.1.8.1,1.3,0,.4,0,.8.3,1.2.1.2.1.4.1.7s0,.7.3,1h0c0,.6.4,1.1.5,1.7.1.4.3.9.5,1.3.3.6.7,1.2,1.1,1.8.5.9,1.1,1.6,1.8,2.3.6.6,1.2,1.1,1.9,1.5.4.3.8.4,1.3.7.5.2,1,.5,1.5.7h.4c.4,0,.8,0,1.1.3h5.9c.2,0,.4-.1.6-.2.3,0,.5-.2.8-.2s.6,0,.8-.3h.1c1-.2,1.8-.7,2.6-1.3,1.1-.7,1.9-1.5,2.8-2.4.8-.9,1.4-1.9,2-2.9.2-.4.4-.8.5-1.1.2-.4.4-.6.8-.4.4.2.9.4,1.3.6.5.2.9.5,1.4.7.3.1.6.3.9.4.4.2.9.5,1.3.7.3.2.6.3.9.5.7.3,1.4.7,2.1,1,.7.3,1.3.7,2,1.1l1.2.6c.6.3,1.2.6,1.8,1h0l.2-.1Z"/>
    </g>
    <g>
      <path class="cls-2" d="M981.84,103.17v10.1c0,.5,0,1-.1,1.5-.2,2.3-.3,4.7-.5,7-.2,2.2-.6,4.4-.9,6.6-.4,2.3-.8,4.6-1.4,6.8-.5,2-1,3.9-1.6,5.9-.8,2.8-1.8,5.5-2.9,8.2-1.5,3.6-3.1,7.2-5,10.7-2.8,5.1-6,9.9-9.6,14.5-3.2,4.1-6.7,7.9-10.5,11.4-4.9,4.7-10.2,8.9-15.9,12.7-5,3.3-10.2,6.2-15.6,8.6-2.7,1.2-5.5,2.3-8.3,3.3-1.3.5-2.7.9-4,1.3-2,.6-4,1.1-6,1.6-1.5.4-2.9.7-4.4.9-2,.4-4,.7-6,.9-2.4.3-4.8.6-7.3.7-2.6.2-5.2.2-7.8.3-4.3,0-8.6-.2-12.9-.7-2.2-.2-4.5-.6-6.7-1s-4.4-.8-6.6-1.4c-2.5-.6-5-1.3-7.4-2.1-3.2-1-6.3-2.2-9.4-3.6-4.4-1.9-8.6-4.2-12.7-6.7-5.1-3.2-9.9-6.8-14.5-10.7-3.5-3-6.8-6.2-9.9-9.6-3.8-4.1-7.3-8.5-10.5-13.2-3.3-4.9-6.2-10-8.6-15.4-1-2.1-1.8-4.3-2.7-6.5-.7-2-1.4-4-2-6-.5-1.8-1-3.7-1.5-5.6-.4-1.5-.7-2.9-1-4.4-.4-2-.7-4-.9-6-.3-2.4-.6-4.8-.8-7.3s-.2-5.1-.3-7.6c0-4.4.2-8.8.7-13.1.2-2.3.6-4.5,1-6.8.4-2.2.8-4.4,1.4-6.6.5-2.2,1.2-4.3,1.8-6.5.9-2.9,1.9-5.7,3.1-8.5,1.7-4,3.6-7.9,5.8-11.7,4.1-7.2,9-13.8,14.5-19.9,4.4-4.9,9.2-9.3,14.4-13.4,4-3.1,8.2-5.9,12.5-8.4,3.4-1.9,6.8-3.7,10.4-5.2,2.1-.9,4.2-1.7,6.3-2.4,1.9-.7,3.8-1.2,5.6-1.8,1.4-.4,2.8-.8,4.2-1.1,1.2-.3,2.4-.6,3.7-.8s2.5-.5,3.8-.7c1.2-.2,2.4-.4,3.6-.5,1.6-.2,3.2-.4,4.8-.5,1.5-.1,3-.2,4.4-.3,3.1-.2,6.2-.2,9.3-.1,2.9,0,5.8.2,8.7.6,1.5.2,3,.3,4.6.5,1.5.2,3,.5,4.5.8,1.9.4,3.7.7,5.6,1.2,2,.5,3.9,1,5.9,1.6,2.5.7,5,1.6,7.4,2.5,4,1.5,7.8,3.3,11.5,5.3,4.6,2.5,9,5.3,13.2,8.5,3.4,2.6,6.7,5.4,9.8,8.3,4.7,4.4,9,9.2,12.9,14.3,3.4,4.5,6.5,9.3,9.1,14.4,1.4,2.8,2.8,5.6,3.9,8.5.8,2,1.5,3.9,2.2,5.9.7,1.9,1.2,3.9,1.8,5.9.4,1.5.8,3,1.1,4.5.4,2,.8,4,1.2,6,.3,1.7.5,3.5.7,5.2.3,2.5.5,5.1.6,7.6,0,.5,0,.9.1,1.4h0l.1.1ZM873.64,19.57c-2.8,0-6,.2-9.2.5-2.7.3-5.3.6-8,1.1-4.4.8-8.8,2-13,3.6-7.2,2.6-13.9,6.2-20.1,10.8-3.9,2.8-7.5,6-10.9,9.4-4.8,4.9-9.2,10.1-13,15.8-5.8,8.8-9.9,18.4-12.1,28.8-.9,4.3-1.5,8.6-1.8,13-.3,5.1-.2,10.1.3,15.1.2,1.9.4,3.8.7,5.6.5,3.3,1.3,6.5,2.2,9.7,1.3,4.4,2.9,8.6,5,12.8,3.2,6.6,7.2,12.6,12,18.2,6.5,7.6,13.9,14.3,22.4,19.6,4.5,2.9,9.3,5.2,14.3,7.2,5.5,2.1,11.2,3.6,17,4.6,2.8.4,5.7.8,8.6.9,4.3.2,8.5.2,12.8,0,3-.2,5.9-.6,8.9-1.1,4-.7,7.9-1.7,11.8-2.9,6.8-2.2,13.2-5.3,19.2-9.1,6.2-4,11.9-8.7,17.1-13.9,3.1-3.1,6-6.4,8.6-9.9,2.2-3,4.3-6.2,6.1-9.6,2-3.6,3.6-7.4,5-11.3,1.1-3.2,2.1-6.5,2.8-9.8.6-2.7,1.1-5.4,1.4-8.2.2-1.9.4-3.7.5-5.6.1-2.4.2-4.8.2-7.1,0-3.7-.2-7.4-.7-11.2-.3-2.3-.6-4.7-1.1-6.9-.7-3.3-1.5-6.6-2.5-9.8-1.2-3.8-2.7-7.4-4.5-10.9-1.9-3.8-4.1-7.5-6.5-10.9-1.5-2.1-3.1-4.2-4.8-6.2-1.8-2.1-3.6-4-5.5-6-5.4-5.5-11.4-10.4-18-14.4-7.9-4.8-16.4-8.1-25.4-10-3.4-.7-6.9-1.2-10.4-1.6-3-.3-6-.4-9.4-.4h0v.1Z"/>
      <path class="cls-2" d="M825.14,125.37h27.1v.7c0,1.9.4,3.7.9,5.5,1,3.4,2.7,6.3,5.4,8.5,1.8,1.5,3.9,2.6,6.2,3.4,3,1,6.2,1.4,9.3,1.5h4.3c2.9-.3,5.7-1.1,8.2-2.6,3.2-1.8,5.7-4.4,7.8-7.4,2.6-3.8,4.3-8,5.3-12.5.4-1.9.8-3.8,1-5.7.4-3.6.5-7.2.4-10.8,0-2.4-.3-4.8-.6-7.2-.4-2.7-1-5.4-1.8-8-1.2-3.6-2.8-6.8-5.3-9.7-2.6-3-5.8-5-9.5-6.1-1.8-.5-3.6-.8-5.4-.9-2.6-.2-5.2,0-7.8.3-1.9.3-3.8.7-5.6,1.4-2.8,1.1-5.3,2.6-7.4,4.8-2,2.1-3.3,4.6-4.3,7.4-.5,1.5-1,3.7-1.2,5.1h7.7c-.2.4-20.7,20.9-21.2,21.3-7.1-7.1-14.2-14.2-21.3-21.3h8.3c0-.5.2-.9.3-1.4.8-4.9,2.2-9.7,4.3-14.2,2.6-5.7,6.2-10.6,11-14.8,4.4-3.8,9.3-6.7,14.8-8.6,2.8-1,5.8-1.7,8.7-2.1,4.4-.7,8.8-.7,13.3-.4,2.7.2,5.3.5,7.9,1,3.2.6,6.3,1.5,9.4,2.7,2.1.8,4.2,1.8,6.2,2.9,2.9,1.6,5.7,3.5,8.2,5.8,2.5,2.1,4.7,4.5,6.7,7.1,3.2,4.1,5.8,8.6,7.8,13.4,1,2.6,1.9,5.3,2.6,8,.5,2.1.9,4.1,1.2,6.2.5,3.5.8,7.1.8,10.6,0,2.6,0,5.3-.3,7.9-.2,2.4-.6,4.9-1.1,7.3-.5,2.3-1.1,4.6-1.9,6.8-1.4,4-3.2,7.8-5.5,11.4-3.5,5.5-7.7,10.2-12.8,14.2-4,3.1-8.5,5.6-13.3,7.4-3.3,1.2-6.7,2.1-10.1,2.7-2.2.4-4.5.7-6.8.8-2.1,0-4.2.1-6.3.1s-4-.2-6-.5c-2.4-.4-4.8-.9-7.1-1.6-5.7-1.7-10.8-4.4-15.5-8.1-3.8-3-7.1-6.6-9.7-10.7-2.6-4.1-4.4-8.5-5.7-13.1-.7-2.4-1.2-4.8-1.5-7.2,0-.3,0-.6-.1-.9v-.1h0v-.3Z"/>
    </g>
    <path class="cls-2" d="M700.7,115.62c0,55.78-45.22,101-101,101s-101-45.22-101-101,45.22-101,101-101,101,45.22,101,101ZM594.94,69.97v-15.4h11.6v15.4c2.49.31,4.98.53,7.44,1.06,6.4,1.37,12.65,4.4,17.76,8.44l-12.94,13.27c-.48.12-3.68-2.09-4.45-2.48-6.19-3.16-14.89-4.77-21.34-1.53-3.14,1.58-4.93,5.57-2.77,8.64l89.4,40c6.21-26.28,1.23-54.24-16.6-74.8-13.36-15.42-30.33-25.95-50.83-28.77-31.44-4.33-58.93,7.22-78.15,31.99-.89,1.14-2.84,3.44-3.42,4.58-.1.21-.14.37-.1.59l38.29,17c.74-1.27,1.12-2.69,1.81-4,4.63-8.83,14.67-13.35,24.3-14ZM594.94,161.37c-7.32-.19-14.47-1.93-20.93-5.37-2.6-1.39-5.69-3.37-7.96-5.24-.33-.27-1.74-1.37-1.69-1.67l13.71-13.71c2.27,1.61,4.3,3.42,6.74,4.81,6.7,3.82,18,6.33,24.84,1.77,4.31-2.87,4.88-10.35.9-13.71l-89.21-39.69c-8.48,25.21-4.88,52.97,10.83,74.46,30.24,41.36,87.1,47.31,124.67,11.94,5.16-4.86,10.99-11.35,14.46-17.54.17-.31,1-1.63.84-1.86l-38-16.6c-2.35,13.1-14.93,21.34-27.6,22.4v15.4h-11.6v-15.4Z"/>
    <g class="cls-1">
      <g class="cls-1">
        <path class="cls-2" d="M592.2,316.37l-28.6-50.07v50.07h-9.5v-63.71h12.94l27.9,49.81v-49.81h9.42v63.71h-12.14Z"/>
      </g>
    </g>
  </g>
</svg>