<?xml version="1.0" encoding="UTF-8"?>
<svg id="Layer_1" data-name="Layer 1" xmlns="http://www.w3.org/2000/svg" viewBox="0 0 49 30">
  <defs>
    <style>
      #Path_1 {
        stroke-width: 0px;
        fill: {{theme.color}};
      }
      #Path_2 {
        fill: #fff;
      }
    </style>
  </defs>
  <g>
      <path id="Path_1" data-name="Path 1" d="M8.6,23.506v-.832a9.218,9.218,0,0,1,.263-1.051,7.019,7.019,0,0,1,1.051-2.8A5.085,5.085,0,0,1,11.1,17.461a22.2,22.2,0,0,1,2.365-1.577,11.566,11.566,0,0,1,1.665-.788l2.146-.876c.876-.394,1.884-.7,2.8-1.051,1.183-.482,2.365-.876,3.636-1.358,1.227-.438,2.146-.745,3.242-1.183,1.051-.394,1.927-.745,2.891-1.1.526-.219,1.051-.394,1.533-.569a9.687,9.687,0,0,1,2.5-.263,5.782,5.782,0,0,1,1.708.263c.832.263,1.665.657,2.5.964s1.708.7,2.5,1.008l2.5.964,2.979,1.139c1.051.394,2.059.788,3.11,1.227a27.492,27.492,0,0,1,3.461,1.621A14.843,14.843,0,0,1,55.514,17.9a6.752,6.752,0,0,1,1.008,1.27,6.894,6.894,0,0,1,.832,2.234,6.053,6.053,0,0,1,.131,1.533,7.679,7.679,0,0,1-.175,2.015,7.157,7.157,0,0,1-.657,1.927,8.279,8.279,0,0,1-1.489,2.015,8.058,8.058,0,0,1-.964.745c-.569.307-1.1.657-1.708.964-.569.263-1.1.526-1.665.745-1.051.482-2.146.876-3.242,1.27l-5.3,2.1-3.767,1.489c-.745.307-1.533.613-2.322.964a7.629,7.629,0,0,1-2.015.569,7.028,7.028,0,0,1-1.358,0,8.136,8.136,0,0,1-1.489-.263c-.482-.175-.964-.35-1.446-.569-.876-.394-1.84-.745-2.716-1.051-1.183-.394-2.365-.876-3.548-1.358-1.008-.394-2.015-.788-2.979-1.183-.832-.307-1.665-.613-2.5-.876s-1.533-.613-2.322-.876a22.651,22.651,0,0,1-2.8-1.227,12.025,12.025,0,0,1-2.979-2.365,3.876,3.876,0,0,1-.526-.745,7.956,7.956,0,0,1-.613-1.708A7.575,7.575,0,0,1,8.6,24.163a.852.852,0,0,0,0-.657Z" transform="translate(-8.6 -8.7)" fill="#6e85b8"/>
      <path id="Path_2" data-name="Path 2" d="M58.773,29.684h3.848a.7.7,0,0,0,.7-.649,3.284,3.284,0,0,1,.046-.649h1.669c.185,0,.185,0,.185.185V33.3a.219.219,0,0,1-.232.232H63.27V32.466a.572.572,0,0,0-.185-.371.979.979,0,0,0-.464-.185H58.68v5.564a.939.939,0,0,0,.788.881h.7c.232,0,.139,0,.139.139v1.715c0,.185,0,.232-.232.232H55.249c-.139,0-.185,0-.185-.185V38.4a4.567,4.567,0,0,0,.788-.093.818.818,0,0,0,.7-.881V24.306a1.137,1.137,0,0,0-.278-.742.834.834,0,0,0-.417-.278,3.757,3.757,0,0,0-1.02,0,.219.219,0,0,1-.232-.232V21.293a.1.1,0,0,1,.093-.093H65.171v.093c0,1.345.093,2.457.093,3.848,0,.185,0,.232-.232.278H63.038a.219.219,0,0,1-.232-.232V23.843c.046-.093-.046-.278-.139-.278a1.766,1.766,0,0,0-.464-.139H58.865a.2.2,0,0,0-.185.185v5.981c.093-.046.093.046.093.093Z" transform="translate(-35.483 -16.633)" fill="#fff"/>
  </g>
</svg>
