<?xml version="1.0" encoding="UTF-8"?>
<svg id="Layer_1" data-name="Layer 1" xmlns="http://www.w3.org/2000/svg" viewBox="0 0 48 48">
  <defs>
    <style>
      .cls-1 {
        fill: #6e86bc;
      }
    </style>
  </defs>
  <path class="cls-1" d="M20.31,33.7c0-7.22,5.87-13.09,13.09-13.09,2.13,0,4.13,.52,5.91,1.43v-3.65c0-1.87-1.51-3.38-3.38-3.38H7.69c-1.87,0-3.38,1.51-3.38,3.38v17.24c0,1.87,1.51,3.38,3.38,3.38h13.76c-.72-1.62-1.14-3.42-1.14-5.31Z"/>
  <rect class="cls-1" x="6.31" y="9.01" width="31" height="3" rx=".37" ry=".37"/>
  <rect class="cls-1" x="11.31" y="4.01" width="21" height="3" rx=".37" ry=".37"/>
  <path class="cls-1" d="M33.4,23.4c-5.68,0-10.29,4.62-10.29,10.29s4.62,10.3,10.29,10.3,10.3-4.62,10.3-10.3-4.62-10.29-10.3-10.29Zm6.71,12.03h-4.96v4.96h-3.48v-4.96h-4.96v-3.48h4.96v-4.97h3.48v4.97h4.96v3.48Z"/>
</svg>