<?xml version="1.0" encoding="UTF-8"?>
<svg id="Layer_1" data-name="Layer 1" xmlns="http://www.w3.org/2000/svg" viewBox="0 0 48 48">
  <defs>
    <style>
      .cls-1 {
        fill: #6e86bc;
      }
    </style>
  </defs>
  <path class="cls-1" d="M35.95,28.95c-2.01,0-3.81,.86-5.09,2.22l-11.94-5.97c.07-.39,.12-.79,.12-1.2s-.05-.81-.12-1.2l11.94-5.97c1.28,1.36,3.08,2.22,5.09,2.22,3.86,0,7-3.14,7-7s-3.14-7-7-7-7,3.14-7,7c0,.41,.05,.81,.12,1.2l-11.94,5.97c-1.28-1.36-3.08-2.22-5.09-2.22-3.86,0-7,3.14-7,7s3.14,7,7,7c2.01,0,3.81-.86,5.09-2.22l11.94,5.97c-.07,.39-.12,.79-.12,1.2,0,3.86,3.14,7,7,7s7-3.14,7-7-3.14-7-7-7Zm0-19.9c1.65,0,3,1.35,3,3s-1.35,3-3,3-3-1.35-3-3,1.35-3,3-3ZM12.05,27c-1.65,0-3-1.35-3-3s1.35-3,3-3,3,1.35,3,3-1.35,3-3,3Zm23.9,11.95c-1.65,0-3-1.35-3-3s1.35-3,3-3,3,1.35,3,3-1.35,3-3,3Z"/>
</svg>