<?xml version="1.0" encoding="UTF-8"?>
<svg id="Layer_1" data-name="Layer 1" xmlns="http://www.w3.org/2000/svg" viewBox="0 0 48 48">
  <defs>
    <style>
      .cls-1 {
        fill: #c2a55e;
      }
    </style>
  </defs>
  <path class="cls-1" d="M38.29,8.5c-3.54-.81-9.43-2.1-14.29-2-4.86,.1-10.49,1.22-14.29,2-3.8,.78-5.71,2.56-5.71,5.71v19.57c0,3.16,2.17,4.9,5.71,5.71,3.54,.81,9.43,2.1,14.29,2,4.86-.1,10.49-1.22,14.29-2,3.8-.78,5.71-2.56,5.71-5.71V14.21c0-3.16-2.17-4.9-5.71-5.71ZM19.27,30.9h-2.53v-13.8h2.53v13.8Zm8.98-3.45l-6.95,3.45v-13.79l6.95,3.45,6.95,3.45-6.95,3.45Z"/>
</svg>