<?xml version="1.0" encoding="UTF-8"?>
<svg id="Layer_2" data-name="Layer 2" xmlns="http://www.w3.org/2000/svg" viewBox="0 0 110.78 27.32">
  <defs>
    <style>
      .cls-1 {
        stroke: {{ theme.color }};
        fill: {{ tomato }};
        stroke-miterlimit: 10;
        stroke-width: .25px;
      }
    </style>
  </defs>
  <g id="Layer_1-2" data-name="Layer 1">
    <g>
      <path class="cls-1" d="M3.78.38h1.57l3.6,9.86h-1.69l-.81-2.31h-3.81l-.81,2.31H.18L3.78.38ZM5.94,6.48l-1.4-3.94-1.4,3.94h2.8Z"/>
      <path class="cls-1" d="M12.97,2.81h1.58v1.46c.39-.97,1.11-1.62,2.23-1.57v1.72h-.07c-1.29,0-2.16.84-2.16,2.54v3.28h-1.58V2.81Z"/>
      <path class="cls-1" d="M20.24,6.62v-.14c0-2.21,1.44-3.81,3.39-3.81,1.06,0,1.77.39,2.38,1.01l-.88,1.16c-.39-.41-.83-.74-1.5-.74-1.04,0-1.79.99-1.79,2.4v.07c0,1.44.76,2.41,1.83,2.41.64,0,1.08-.32,1.51-.76l.85,1.05c-.59.66-1.33,1.12-2.47,1.12-1.93,0-3.33-1.56-3.33-3.77Z"/>
      <path class="cls-1" d="M30.39,8.45v-4.27h-.81v-1.36h.81V.81h1.58v2h1.67v1.36h-1.67v3.95c0,.57.29.81.8.81.31,0,.59-.07.85-.21v1.3c-.36.2-.78.32-1.32.32-1.09,0-1.92-.46-1.92-1.9Z"/>
      <path class="cls-1" d="M37.89.18h1.68v1.56h-1.68V.18ZM37.95,2.81h1.58v7.42h-1.58V2.81Z"/>
      <path class="cls-1" d="M43.87,6.62v-.14c0-2.21,1.44-3.81,3.39-3.81,1.06,0,1.76.39,2.38,1.01l-.88,1.16c-.39-.41-.83-.74-1.5-.74-1.04,0-1.79.99-1.79,2.4v.07c0,1.44.76,2.41,1.83,2.41.64,0,1.08-.32,1.51-.76l.85,1.05c-.59.66-1.33,1.12-2.47,1.12-1.93,0-3.33-1.56-3.33-3.77Z"/>
      <path class="cls-1" d="M60.32.43h1.62v4.12h3.85V.43h1.62v9.81h-1.62v-4.17h-3.85v4.17h-1.62V.43Z"/>
      <path class="cls-1" d="M72.1,7.79V2.81h1.58v4.52c0,1.04.49,1.61,1.32,1.61s1.4-.62,1.4-1.64V2.81h1.6v7.42h-1.6v-1.08c-.42.66-1.01,1.22-2.02,1.22-1.44,0-2.28-.99-2.28-2.59Z"/>
      <path class="cls-1" d="M84.16,9.12v1.12h-1.58V.12h1.58v3.88c.46-.71,1.11-1.33,2.17-1.33,1.48,0,2.89,1.25,2.89,3.75v.2c0,2.49-1.39,3.75-2.89,3.75-1.08,0-1.72-.6-2.17-1.26ZM87.62,6.6v-.13c0-1.48-.77-2.4-1.72-2.4s-1.77.92-1.77,2.38v.14c0,1.46.81,2.38,1.77,2.38s1.72-.9,1.72-2.38Z"/>
      <path class="cls-1" d="M99.66,6.65c0-3.42,2.41-6.37,5.69-6.37,3.04,0,5.31,2.44,5.31,5.17,0,2.35-1.15,3.84-2.59,3.84-1.02,0-1.6-.48-1.83-1.06-.46.57-1.09,1.06-1.96,1.06-1.19,0-2.13-.9-2.13-2.38,0-2.06,1.36-3.77,2.86-3.77.9,0,1.4.49,1.69,1.05l.17-.85,1.29.21-.62,3.53c-.06.27-.08.52-.08.71,0,.55.32.88.91.88.94,0,1.74-1.29,1.74-3.24,0-2.41-1.98-4.64-4.76-4.64-3,0-5.13,2.75-5.13,5.85s2.06,5.22,4.97,5.22c1.21,0,2.1-.28,3.04-.84l.27.43c-.98.59-2,.92-3.32.92-3.15,0-5.52-2.42-5.5-5.74ZM105.66,7.69c.43-.43.74-1.29.74-2.03,0-.83-.5-1.33-1.18-1.33-.38,0-.73.15-1.02.45-.43.45-.71,1.32-.71,2.03,0,.88.49,1.33,1.18,1.33.36,0,.71-.15.99-.45Z"/>
      <path class="cls-1" d="M3.78,17.18h1.57l3.6,9.86h-1.69l-.81-2.31h-3.81l-.81,2.31H.18l3.6-9.86ZM5.94,23.28l-1.4-3.94-1.4,3.94h2.8Z"/>
      <path class="cls-1" d="M13.14,17.23h3.54c1.12,0,2.03.34,2.62.92.52.52.81,1.26.81,2.16v.06c0,1.51-.84,2.45-2.03,2.87l2.31,3.8h-1.88l-2.09-3.47s-.07.01-.1.01h-1.57v3.46h-1.62v-9.81ZM16.52,22.12c1.26,0,1.96-.67,1.96-1.7v-.03c0-1.11-.71-1.68-1.93-1.68h-1.78v3.4h1.75Z"/>
      <path class="cls-1" d="M24.31,22.19v-.1c0-2.97,1.85-5,4.38-5,1.37,0,2.28.49,3.08,1.22l-.98,1.25c-.57-.53-1.22-.95-2.1-.95-1.54,0-2.7,1.4-2.7,3.49v.06c0,2.13,1.16,3.52,2.7,3.52.94,0,1.55-.43,2.17-1.02l.95,1.15c-.85.88-1.85,1.39-3.21,1.39-2.51,0-4.3-1.99-4.3-4.99Z"/>
      <path class="cls-1" d="M38.08,18.75h-2.58v-1.51h6.78v1.51h-2.58v8.29h-1.62v-8.29Z"/>
      <path class="cls-1" d="M46.69,17.23h1.62v9.81h-1.62v-9.81Z"/>
      <path class="cls-1" d="M52.94,22.19v-.1c0-2.97,1.85-5,4.38-5,1.37,0,2.28.49,3.08,1.22l-.98,1.25c-.57-.53-1.22-.95-2.1-.95-1.54,0-2.7,1.4-2.7,3.49v.06c0,2.13,1.16,3.52,2.7,3.52.94,0,1.55-.43,2.17-1.02l.95,1.15c-.85.88-1.85,1.39-3.21,1.39-2.51,0-4.3-1.99-4.3-4.99Z"/>
      <path class="cls-1" d="M64.06,23.41v-.11c0-2.23,1.34-3.82,3.17-3.82,2.02,0,3.08,1.68,3.08,3.91,0,.1,0,.32-.01.55h-4.65c.14,1.25.91,1.92,1.88,1.92.7,0,1.22-.31,1.71-.78l.83.98c-.67.71-1.5,1.15-2.61,1.15-1.91,0-3.39-1.46-3.39-3.78ZM68.77,22.84c-.08-1.18-.62-2.03-1.54-2.03-.87,0-1.48.77-1.6,2.03h3.14Z"/>
      <path class="cls-1" d="M74.53,19.61h1.58v1.09c.42-.66,1.02-1.23,2.03-1.23,1.43,0,2.28,1.01,2.28,2.59v4.97h-1.58v-4.52c0-1.04-.49-1.61-1.33-1.61s-1.4.62-1.4,1.64v4.5h-1.58v-7.42Z"/>
      <path class="cls-1" d="M85.23,25.25v-4.27h-.81v-1.36h.81v-2h1.58v2h1.67v1.36h-1.67v3.95c0,.57.29.81.8.81.31,0,.59-.07.85-.21v1.3c-.36.2-.78.32-1.32.32-1.09,0-1.92-.46-1.92-1.9Z"/>
      <path class="cls-1" d="M92.19,23.41v-.11c0-2.23,1.34-3.82,3.17-3.82,2.02,0,3.08,1.68,3.08,3.91,0,.1,0,.32-.01.55h-4.65c.14,1.25.91,1.92,1.88,1.92.7,0,1.22-.31,1.71-.78l.83.98c-.67.71-1.5,1.15-2.61,1.15-1.91,0-3.39-1.46-3.39-3.78ZM96.89,22.84c-.08-1.18-.62-2.03-1.54-2.03-.87,0-1.48.77-1.6,2.03h3.14Z"/>
      <path class="cls-1" d="M102.66,19.61h1.58v1.46c.39-.97,1.11-1.62,2.23-1.57v1.72h-.07c-1.29,0-2.16.84-2.16,2.54v3.28h-1.58v-7.42Z"/>
    </g>
  </g>
</svg>
