<?xml version="1.0" encoding="UTF-8"?>
<svg id="Layer_1" data-name="Layer 1" xmlns="http://www.w3.org/2000/svg" viewBox="0 0 20 20">
  <defs>
    <style>
      .cls-1 {
        fill: #fff;
      }

      .cls-2 {
        fill: #707071;
      }
    </style>
  </defs>
  <circle id="Ellipse_28" data-name="Ellipse 28" class="cls-1" cx="10" cy="10" r="10"/>
  <path class="cls-2" d="M15.86,8.77l-1.93.52c.21.79.18,1.61-.08,2.38-.73,2.13-3.06,3.26-5.18,2.53-1.03-.35-1.86-1.09-2.34-2.07-.48-.98-.54-2.08-.19-3.11.56-1.62,2.05-2.66,3.67-2.74l-.51,1.48,5.86-1.13-3.91-4.51-.75,2.18c-2.7-.22-5.32,1.39-6.25,4.07-.53,1.53-.43,3.18.28,4.64s1.95,2.55,3.48,3.08c.65.23,1.32.33,1.98.33,2.52,0,4.88-1.58,5.75-4.1.4-1.15.44-2.38.12-3.55Z"/>
</svg>