<svg xmlns="http://www.w3.org/2000/svg" viewBox="0 0 97.41 36.8"><defs><style>.cls-1{fill:#445170;}.cls-2{fill:#fff;}</style></defs><g id="Layer_2" data-name="Layer 2"><g id="timeline_view"><g id="timeline_view-2" data-name="timeline_view"><path class="cls-1" d="M30.13,11.23v-.62c0-.27.09-.53.14-.8a5.34,5.34,0,0,1,.82-2.13,4.51,4.51,0,0,1,.9-1,19.31,19.31,0,0,1,1.83-1.21,8.44,8.44,0,0,1,1.26-.58c.55-.2,1.1-.43,1.64-.64.72-.28,1.45-.53,2.16-.81.91-.36,1.82-.72,2.74-1s1.66-.58,2.48-.9S45.57.89,46.3.61c.39-.14.78-.3,1.19-.41A7.08,7.08,0,0,1,49.37,0a4.71,4.71,0,0,1,1.3.21c.64.21,1.26.49,1.89.73l1.93.76,1.89.74,2.21.87c.78.31,1.57.61,2.35.93a23.35,23.35,0,0,1,2.63,1.24A10.11,10.11,0,0,1,65.76,7a4.56,4.56,0,0,1,.77,1,5.41,5.41,0,0,1,.63,1.71,5,5,0,0,1,.12,1.15,6.33,6.33,0,0,1-.13,1.56,6.24,6.24,0,0,1-.51,1.47,5.09,5.09,0,0,1-1.15,1.5,7.61,7.61,0,0,1-.72.55c-.42.26-.85.52-1.29.75a13,13,0,0,1-1.26.55c-.8.36-1.63.65-2.45,1l-4,1.58L52.89,21c-.58.23-1.17.46-1.75.72a5.17,5.17,0,0,1-1.5.38,5.79,5.79,0,0,1-1,0,6.33,6.33,0,0,1-1.14-.2c-.38-.11-.74-.29-1.1-.43-.68-.28-1.37-.54-2.06-.79-.89-.33-1.79-.67-2.68-1s-1.51-.61-2.27-.89L37.49,18l-1.78-.7a14.91,14.91,0,0,1-2.12-.95,9.9,9.9,0,0,1-2.27-1.8,2.23,2.23,0,0,1-.4-.58,8.32,8.32,0,0,1-.48-1.29,6.38,6.38,0,0,1-.24-1C30.17,11.5,30.17,11.36,30.13,11.23Z"/><path class="cls-2" d="M48.44,10.24H51.2a.49.49,0,0,0,.49-.46c0-.22,0-.24,0-.47h1.21c.12,0,.14,0,.14.13v1.8c0,.6,0,1,0,1.6a.13.13,0,0,1-.14.15l-1.2,0h0v-.77a.28.28,0,0,0-.12-.25.53.53,0,0,0-.36-.13H48.39V15.8a.65.65,0,0,0,.57.64h.51c.08,0,.11,0,.11.11,0,.41,0,.82,0,1.23,0,.13,0,.16-.16.16h-.77l-2.71,0c-.11,0-.13,0-.13-.13V16.48c.19,0,.38,0,.56-.05a.58.58,0,0,0,.49-.63c0-1.56,0-3.92,0-5.48,0-1,0-2.88,0-3.93a.85.85,0,0,0-.18-.51.52.52,0,0,0-.3-.2,2.56,2.56,0,0,0-.73,0c-.11,0-.16,0-.16-.15,0-.42,0-.84,0-1.26a.08.08,0,0,1,.07-.08.29.29,0,0,1,.16,0h7.33a.13.13,0,0,1,0,.06c0,1,0,1.76.07,2.74,0,.14,0,.16-.15.18H51.57c-.12,0-.16,0-.16-.16,0-.39,0-.58,0-1a.19.19,0,0,0-.12-.21A.88.88,0,0,0,51,5.7H48.54c-.12,0-.12,0-.12.12v4.28S48.43,10.17,48.44,10.24Z"/><path class="cls-1" d="M5.17,31.09H1.37v1.25H3.61v1.39H1.37v3H0v-7H5.17Z"/><path class="cls-1" d="M13.14,33.19a4.11,4.11,0,0,1-.78,2.64,2.58,2.58,0,0,1-2.11,1A2.57,2.57,0,0,1,8,35.68a4.28,4.28,0,0,1-.68-2.49,4,4,0,0,1,.79-2.61,2.61,2.61,0,0,1,2.14-1,2.58,2.58,0,0,1,2.08,1A4,4,0,0,1,13.14,33.19Zm-1.36,0a2.77,2.77,0,0,0-.37-1.61A1.32,1.32,0,0,0,10.25,31a1.33,1.33,0,0,0-1.13.55,2.79,2.79,0,0,0-.41,1.65,2.92,2.92,0,0,0,.4,1.64,1.3,1.3,0,0,0,1.14.58,1.29,1.29,0,0,0,1.12-.61A2.81,2.81,0,0,0,11.78,33.17Z"/><path class="cls-1" d="M21.49,36.68H20l-1-2.61H17.26v2.61H15.89v-7H19A2.57,2.57,0,0,1,20.3,30a2.22,2.22,0,0,1,.81.8,2.13,2.13,0,0,1,.29,1.08,2.1,2.1,0,0,1-1,1.86ZM20,31.87a.7.7,0,0,0-.25-.55.88.88,0,0,0-.62-.23h-1.9v1.59h1.9a.87.87,0,0,0,.62-.22A.75.75,0,0,0,20,31.87Z"/><path class="cls-1" d="M29,31.09h-1.9v5.59H25.77V31.09H23.85V29.7H29Z"/><path class="cls-1" d="M37.16,36.68H32v-7h5.08v1.39H33.36v1.15h2.1v1.39h-2.1v1.66h3.8Z"/><path class="cls-1" d="M45.73,31.87a2.21,2.21,0,0,1-.32,1.19,2,2,0,0,1-.91.79,2.57,2.57,0,0,1-1.17.22H41.5v2.61H40.13v-7H43.4a2.57,2.57,0,0,1,1.27.29,2.18,2.18,0,0,1,1.06,1.88Zm-1.35,0a.73.73,0,0,0-.25-.55.93.93,0,0,0-.64-.23h-2v1.59h2a.92.92,0,0,0,.65-.22A.78.78,0,0,0,44.38,31.87Z"/><path class="cls-1" d="M54.14,36.68H52.66L52,35.05H49.24l-.66,1.63H47.1l2.8-7h1.44Zm-2.71-3-.77-1.95-.86,1.95Z"/><path class="cls-1" d="M62.29,36.68H61.1l-3-4.47v4.47H56.69v-7h1.37L60.93,34V29.7h1.36Z"/><path class="cls-1" d="M71.45,36.68H70.06v-7h1.39Z"/><path class="cls-1" d="M79.62,33.19a4.11,4.11,0,0,1-.79,2.64,2.8,2.8,0,0,1-4.36-.15,4.28,4.28,0,0,1-.68-2.49,4,4,0,0,1,.79-2.61,2.61,2.61,0,0,1,2.14-1,2.58,2.58,0,0,1,2.08,1A4,4,0,0,1,79.62,33.19Zm-1.36,0a2.84,2.84,0,0,0-.38-1.61A1.32,1.32,0,0,0,76.72,31a1.3,1.3,0,0,0-1.12.55,2.72,2.72,0,0,0-.41,1.65,2.92,2.92,0,0,0,.39,1.64,1.3,1.3,0,0,0,1.14.58,1.29,1.29,0,0,0,1.12-.61A2.81,2.81,0,0,0,78.26,33.17Z"/><path class="cls-1" d="M88.78,29.7l-1.1,7H86.21l-1.07-4.17L84,36.68H82.49l-1.1-7h1.39l.61,3.76,1-3.76h1.46l1,3.76.59-3.76Z"/><path class="cls-1" d="M97.41,36.68H95.92l-.66-1.63H92.51l-.66,1.63H90.36l2.8-7H94.6Zm-2.71-3-.78-1.95-.85,1.95Z"/></g></g></g></svg>