<?xml version="1.0" encoding="UTF-8"?>
<svg id="Layer_1" data-name="Layer 1" xmlns="http://www.w3.org/2000/svg" viewBox="0 0 216 144">
  <defs>
    <style>
      .cls-1 {
        fill: #fff;
      }

      .cls-2 {
        fill: #bea15d;
      }
    </style>
  </defs>
  <path class="cls-2" d="m31.68,71.65v-.77c.06-.33.13-.66.22-.98.14-.94.49-1.84,1.01-2.63.3-.49.67-.93,1.11-1.3.71-.54,1.46-1.04,2.23-1.49.5-.29,1.02-.54,1.57-.73l2.02-.79c.85-.35,1.79-.66,2.67-1.01,1.12-.44,2.24-.85,3.41-1.29s2.02-.7,3.04-1.09,1.82-.69,2.72-1.03c.48-.2.96-.37,1.46-.51.76-.18,1.54-.27,2.33-.25.54.01,1.08.1,1.59.26.79.26,1.56.6,2.34.9s1.59.63,2.35.95l2.34.91,2.77,1.07c.96.38,1.94.74,2.9,1.15,1.11.44,2.19.95,3.24,1.53.98.52,1.89,1.16,2.71,1.91.37.36.69.77.95,1.21.38.66.65,1.37.78,2.11.1.47.15.95.14,1.42.02.64-.03,1.29-.17,1.92-.12.63-.34,1.24-.63,1.82-.35.7-.83,1.33-1.4,1.87-.29.24-.59.47-.9.68-.52.31-1.05.63-1.59.92-.51.25-1.03.48-1.56.67-.99.44-2.01.85-3.03,1.21l-4.98,1.96-3.51,1.41c-.72.3-1.45.57-2.17.9-.59.27-1.23.44-1.88.5-.42.04-.84.04-1.26,0-.47-.04-.94-.13-1.4-.26-.46-.15-.92-.33-1.36-.53-.85-.35-1.71-.66-2.56-.98-1.1-.4-2.22-.85-3.32-1.27-.93-.38-1.86-.76-2.8-1.1-.78-.28-1.55-.57-2.32-.85s-1.47-.59-2.2-.85c-.9-.32-1.78-.71-2.62-1.18-1.04-.6-1.99-1.35-2.8-2.23-.2-.21-.37-.45-.49-.72-.24-.51-.44-1.04-.6-1.59-.13-.43-.23-.86-.29-1.3-.02-.22-.02-.4-.07-.56Z"/>
  <path class="cls-1" d="m54.3,70.43h3.41c.32,0,.59-.25.61-.57,0-.27,0-.3.04-.58h1.49c.15,0,.17,0,.17.16v4.19c0,.12-.06.2-.18.2h-1.51v-.95c0-.12-.05-.24-.15-.32-.12-.1-.28-.16-.43-.16h-3.5v4.9c.01.4.31.73.71.78h.62c.2,0,.14,0,.14.14v1.53c0,.16,0,.2-.19.2h-4.31c-.14,0-.16,0-.16-.15v-1.65c.23,0,.46-.03.69-.06.38-.05.65-.39.61-.77v-11.64c0-.23-.08-.45-.21-.63-.09-.12-.23-.2-.38-.24-.3-.04-.6-.04-.9,0-.14,0-.2-.05-.2-.19v-1.57s.04-.08.09-.09c.07-.01.14-.01.2,0h9.1v.07c0,1.21.05,2.18.08,3.41,0,.17,0,.2-.18.21-.1,0-.2,0-.3,0h-1.47c-.14,0-.2-.06-.2-.2v-1.19c.02-.11-.04-.21-.14-.26-.14-.07-.28-.11-.43-.13h-2.95q-.15,0-.15.14v5.29s0,.04.02.13Z"/>
  <g>
    <path class="cls-2" d="m87.3,66.36h5.71v1.5h-3.93v2.26h3.69v1.48h-3.69v3.67h-1.78v-8.91Z"/>
    <path class="cls-2" d="m103.9,70.77c0,2.56-1.24,4.63-4.04,4.63s-3.92-2.11-3.92-4.65c0-2.19,1.2-4.51,4.05-4.51,2.69,0,3.92,2.13,3.92,4.53Zm-6.09-.01c0,1.78.71,3.19,2.12,3.19,1.55,0,2.11-1.32,2.11-3.18,0-1.64-.55-3.09-2.14-3.09-1.47,0-2.09,1.36-2.09,3.07Z"/>
    <path class="cls-2" d="m109.22,71.59v3.68h-1.78v-8.91h3.63c1.68,0,2.88.83,2.88,2.41,0,1.21-.64,1.8-1.38,2.08.88.34,1.2,1.04,1.2,2.15v.23c0,.79.05,1.54.12,2.04h-1.75c-.13-.37-.17-.97-.17-2.07v-.23c0-1.02-.37-1.38-1.54-1.38h-1.21Zm0-1.44h1.36c.86,0,1.57-.23,1.57-1.22,0-.82-.6-1.13-1.32-1.13h-1.61v2.34Z"/>
    <path class="cls-2" d="m119.18,67.86h-2.41v-1.5h6.66v1.5h-2.42v7.41h-1.83v-7.41Z"/>
    <path class="cls-2" d="m132.18,71.38h-3.87v2.4h4.28l-.22,1.49h-5.83v-8.91h5.8v1.5h-4.03v2.02h3.87v1.5Z"/>
    <path class="cls-2" d="m135.83,66.36h3.28c1.67,0,3.14.86,3.14,2.66s-1.36,2.81-3.3,2.81h-1.31v3.44h-1.82v-8.91Zm1.82,4.04h1.19c.97,0,1.57-.36,1.57-1.34,0-.89-.62-1.26-1.51-1.26h-1.25v2.6Z"/>
    <path class="cls-2" d="m146.42,73.15l-.63,2.12h-1.79c.12-.35,2.59-8.51,2.72-8.91h2.35l2.86,8.91h-1.91l-.67-2.12h-2.94Zm2.58-1.5c-.55-1.81-.94-3.08-1.14-3.91h-.01c-.22.99-.62,2.38-1.08,3.91h2.24Z"/>
    <path class="cls-2" d="m154.99,75.27v-8.91h2.32c2.64,5.43,3.07,6.31,3.21,6.73h.02c-.09-1.06-.1-2.51-.1-3.97v-2.76h1.66v8.91h-2.22c-2.84-5.97-3.16-6.68-3.29-7.01h-.01c.07,1.13.07,2.67.07,4.26v2.76h-1.66Z"/>
    <path class="cls-2" d="m178.01,72.46c-.24,1.5-1.25,2.93-3.54,2.93-2.81,0-3.82-2.04-3.82-4.58s1.29-4.57,3.89-4.57c2.41,0,3.33,1.54,3.41,2.92h-1.77c-.18-.74-.47-1.46-1.7-1.46-1.48,0-1.97,1.5-1.97,3.11,0,1.69.47,3.15,1.99,3.15,1.19,0,1.55-.82,1.71-1.49h1.79Z"/>
    <path class="cls-2" d="m183.12,67.86h-2.41v-1.5h6.66v1.5h-2.42v7.41h-1.83v-7.41Z"/>
  </g>
</svg>