<svg xmlns="http://www.w3.org/2000/svg" viewBox="0 0 85.31 48.62"><title>fi-ogo</title><path d="M15.74,16.27v-.85s0,0,0-.05A11.48,11.48,0,0,1,16,14.22a7.69,7.69,0,0,1,1.19-3.09,6.13,6.13,0,0,1,1.3-1.52A27.57,27.57,0,0,1,21.1,7.86,10.52,10.52,0,0,1,22.94,7l2.37-.93c1-.41,2.1-.77,3.13-1.18,1.31-.52,2.63-1,4-1.51S34.81,2.56,36,2.1s2.13-.81,3.19-1.21A17.5,17.5,0,0,1,40.9.29,10.53,10.53,0,0,1,43.63,0,6.6,6.6,0,0,1,45.5.31c.93.3,1.83.7,2.74,1.05S50.11,2.1,51,2.47l2.75,1.07L57,4.8c1.13.45,2.27.87,3.4,1.35a32.06,32.06,0,0,1,3.8,1.79,15,15,0,0,1,3.18,2.24,6.89,6.89,0,0,1,1.11,1.42,7.81,7.81,0,0,1,.92,2.48,7.23,7.23,0,0,1,.17,1.67A9.05,9.05,0,0,1,69.38,18a7.92,7.92,0,0,1-.74,2.13A7.8,7.8,0,0,1,67,22.32a11.77,11.77,0,0,1-1.06.8c-.61.36-1.23.74-1.86,1.08a18.68,18.68,0,0,1-1.83.79c-1.16.52-2.36,1-3.55,1.42l-5.84,2.3-4.12,1.65c-.85.35-1.7.67-2.54,1.05A6.79,6.79,0,0,1,44,32a8.12,8.12,0,0,1-1.48,0,9.11,9.11,0,0,1-1.64-.3,17.09,17.09,0,0,1-1.6-.62c-1-.41-2-.78-3-1.15-1.29-.47-2.6-1-3.89-1.49-1.09-.44-2.18-.89-3.29-1.29-.91-.33-1.82-.67-2.72-1s-1.72-.69-2.58-1a19.62,19.62,0,0,1-3.07-1.38,13.87,13.87,0,0,1-3.29-2.61,3.23,3.23,0,0,1-.58-.84,12.25,12.25,0,0,1-.7-1.86,10,10,0,0,1-.34-1.53C15.8,16.67,15.8,16.46,15.74,16.27Z" style="fill:#6e86bc"/><path d="M42.27,14.83h4a.71.71,0,0,0,.71-.67c0-.32,0-.35.05-.68h1.75c.18,0,.2,0,.2.19,0,1,0,1.64,0,2.6s0,1.45,0,2.32c0,.14-.07.23-.21.23l-1.73,0H47v-.27c0-.38,0-.47,0-.84a.42.42,0,0,0-.18-.37.78.78,0,0,0-.51-.19H42.2V22.9a.94.94,0,0,0,.83.91c.25,0,.49,0,.73,0s.16,0,.16.16c0,.6,0,1.19,0,1.79,0,.19,0,.23-.22.23H42.58l-3.93,0c-.16,0-.19,0-.19-.18V23.87a7,7,0,0,0,.81-.07.82.82,0,0,0,.71-.9c0-2.27,0-5.68,0-7.94,0-1.52,0-4.18,0-5.71a1.27,1.27,0,0,0-.25-.74.8.8,0,0,0-.44-.28,3.77,3.77,0,0,0-1.06,0c-.16,0-.24-.06-.24-.22,0-.61,0-1.22,0-1.84a.16.16,0,0,1,.1-.11.69.69,0,0,1,.24,0H49s0,0,0,.08c0,1.42.06,2.56.09,4,0,.2,0,.23-.21.25a2.11,2.11,0,0,1-.35,0H46.8c-.16,0-.23-.07-.23-.23,0-.56,0-.84,0-1.4a.28.28,0,0,0-.17-.3,1.57,1.57,0,0,0-.51-.15H42.43c-.18,0-.18,0-.18.17v6.2S42.26,14.73,42.27,14.83Z" style="fill:#fff"/><path d="M4.53,43.63H1.2v1.09h2v1.21h-2v2.59H0V42.41H4.53Z" style="fill:#6e86bc"/><path d="M11.51,45.46a3.57,3.57,0,0,1-.69,2.31A2.24,2.24,0,0,1,9,48.62a2.23,2.23,0,0,1-2-1,3.69,3.69,0,0,1-.6-2.18,3.53,3.53,0,0,1,.69-2.29A2.32,2.32,0,0,1,9,42.33a2.27,2.27,0,0,1,1.82.86A3.5,3.5,0,0,1,11.51,45.46Zm-1.19,0A2.36,2.36,0,0,0,10,44a1.13,1.13,0,0,0-1-.5A1.17,1.17,0,0,0,8,44a2.39,2.39,0,0,0-.36,1.44A2.55,2.55,0,0,0,8,46.9a1.2,1.2,0,0,0,2,0A2.56,2.56,0,0,0,10.32,45.44Z" style="fill:#6e86bc"/><path d="M18.82,48.52H17.54l-.83-2.29h-1.6v2.29h-1.2V42.41h2.76a2.22,2.22,0,0,1,1.11.25,1.92,1.92,0,0,1,.09,3.27Zm-1.28-4.21a.64.64,0,0,0-.21-.49.8.8,0,0,0-.55-.19H15.11V45h1.67a.81.81,0,0,0,.55-.2A.66.66,0,0,0,17.54,44.31Z" style="fill:#6e86bc"/><path d="M25.42,43.63H23.76v4.89H22.57V43.63H20.89V42.41h4.53Z" style="fill:#6e86bc"/><path d="M32.55,48.52H28V42.41h4.44v1.22H29.22v1h1.84v1.21H29.22V47.3h3.33Z" style="fill:#6e86bc"/><path d="M40.06,44.31a1.93,1.93,0,0,1-.29,1,1.66,1.66,0,0,1-.8.7,2.24,2.24,0,0,1-1,.19h-1.6v2.29h-1.2V42.41H38a2.17,2.17,0,0,1,1.11.25,1.86,1.86,0,0,1,.69.7A2,2,0,0,1,40.06,44.31Zm-1.19,0a.64.64,0,0,0-.22-.49.81.81,0,0,0-.56-.19H36.35V45h1.74a.81.81,0,0,0,.57-.2A.66.66,0,0,0,38.87,44.31Z" style="fill:#6e86bc"/><path d="M47.42,48.52h-1.3l-.58-1.43H43.13l-.58,1.43h-1.3l2.45-6.11H45Zm-2.37-2.65-.68-1.71-.75,1.71Z" style="fill:#6e86bc"/><path d="M54.56,48.52H53.51l-2.66-3.91v3.91h-1.2V42.41h1.2l2.52,3.73V42.41h1.19Z" style="fill:#6e86bc"/><path d="M62.58,48.52H61.36V42.41h1.22Z" style="fill:#6e86bc"/><path d="M69.73,45.46A3.57,3.57,0,0,1,69,47.77a2.45,2.45,0,0,1-3.82-.13,3.77,3.77,0,0,1-.59-2.18,3.53,3.53,0,0,1,.69-2.29,2.44,2.44,0,0,1,3.7,0A3.5,3.5,0,0,1,69.73,45.46Zm-1.19,0a2.36,2.36,0,0,0-.33-1.4,1.14,1.14,0,0,0-1-.5,1.16,1.16,0,0,0-1,.48,2.39,2.39,0,0,0-.36,1.44,2.55,2.55,0,0,0,.35,1.44,1.12,1.12,0,0,0,1,.51,1.15,1.15,0,0,0,1-.53A2.56,2.56,0,0,0,68.54,45.44Z" style="fill:#6e86bc"/><path d="M77.75,42.41l-1,6.11H75.51l-.94-3.66-1,3.66H72.25l-1-6.11H72.5L73,45.7l.85-3.29h1.28L76,45.7l.51-3.29Z" style="fill:#6e86bc"/><path d="M85.31,48.52H84l-.58-1.43H81l-.58,1.43h-1.3l2.46-6.11h1.26Zm-2.37-2.65-.68-1.71-.75,1.71Z" style="fill:#6e86bc"/></svg>