<svg xmlns="http://www.w3.org/2000/svg" viewBox="0 0 50.17 11.42"><title>Asset 11</title><text transform="translate(11.18 9.61)" style="font-size:11px;fill:#f6f6f8;font-family:Gotham-Book, Gotham Book;letter-spacing:0.009987571022727272em">L<tspan x="6.92" y="0" style="letter-spacing:0.049982244318181816em">OGIN</tspan></text><path d="M0,6.79V5a.39.39,0,0,1,.31-.44c.35-.14,1.16-.14,1.16-.52s0-1,0-1.54A2.8,2.8,0,0,1,7,2.31a2.59,2.59,0,0,1,0,.56c0,.47,0,.94,0,1.42,0,.11.85.18,1,.22.5.16.51.17.51.71V9.36c0,.28-.06.37-.33.47a15.21,15.21,0,0,1-3.56.57A13.31,13.31,0,0,1,.36,9.84C.06,9.73,0,9.64,0,9.33Zm6.13-2.6V3.45a7.71,7.71,0,0,0,0-1A1.83,1.83,0,0,0,4.11,1,1.87,1.87,0,0,0,2.43,2.77V4.05s0,.08,0,.14A8.83,8.83,0,0,1,6.13,4.19Z" style="fill:#f6f6f8"/></svg>