<?xml version="1.0" encoding="UTF-8"?>
<svg id="Layer_1" data-name="Layer 1" xmlns="http://www.w3.org/2000/svg" viewBox="0 0 711.65 316.66">
  <defs>
    <style>
      .cls-1 {
        fill: #fff;
      }
    </style>
  </defs>
  <g>
    <path class="cls-1" d="M63.76,312.54c-5.05-2.75-9-6.54-11.87-11.38-2.86-4.84-4.3-10.3-4.3-16.38s1.45-11.54,4.34-16.38c2.89-4.84,6.86-8.64,11.91-11.38s10.7-4.12,16.96-4.12c5.08,0,9.71,.89,13.9,2.66,4.19,1.77,7.73,4.34,10.63,7.71l-7.44,7c-4.49-4.84-10.01-7.26-16.56-7.26-4.25,0-8.06,.93-11.42,2.79-3.36,1.86-5.99,4.44-7.88,7.75-1.89,3.31-2.83,7.06-2.83,11.25s.94,7.94,2.83,11.25c1.89,3.31,4.52,5.89,7.88,7.75,3.37,1.86,7.17,2.79,11.42,2.79,6.55,0,12.07-2.45,16.56-7.35l7.44,7.08c-2.89,3.37-6.45,5.93-10.67,7.71-4.22,1.77-8.87,2.66-13.95,2.66-6.26,0-11.91-1.37-16.96-4.12Z"/>
    <path class="cls-1" d="M126.82,312.54c-5.05-2.75-9-6.54-11.87-11.38-2.86-4.84-4.3-10.3-4.3-16.38s1.45-11.54,4.34-16.38c2.89-4.84,6.86-8.64,11.91-11.38s10.7-4.12,16.96-4.12c5.08,0,9.71,.89,13.9,2.66,4.19,1.77,7.73,4.34,10.63,7.71l-7.44,7c-4.49-4.84-10.01-7.26-16.56-7.26-4.25,0-8.06,.93-11.42,2.79-3.36,1.86-5.99,4.44-7.88,7.75-1.89,3.31-2.83,7.06-2.83,11.25s.94,7.94,2.83,11.25c1.89,3.31,4.52,5.89,7.88,7.75,3.37,1.86,7.17,2.79,11.42,2.79,6.55,0,12.07-2.45,16.56-7.35l7.44,7.08c-2.89,3.37-6.45,5.93-10.67,7.71-4.22,1.77-8.87,2.66-13.95,2.66-6.26,0-11.91-1.37-16.96-4.12Z"/>
  </g>
  <g>
    <path class="cls-1" d="M349.36,289.17c2.01,2.63,3.01,5.89,3.01,9.79,0,5.37-2.07,9.52-6.2,12.44-4.13,2.92-10.16,4.38-18.07,4.38h-30.82v-61.99h29.05c7.32,0,12.96,1.43,16.92,4.29,3.96,2.86,5.93,6.81,5.93,11.82,0,3.07-.71,5.79-2.13,8.15-1.42,2.36-3.36,4.19-5.84,5.49,3.42,1.12,6.14,3,8.15,5.62Zm-40.56-26.35v17.09h16.3c4.01,0,7.1-.72,9.26-2.17,2.15-1.45,3.23-3.56,3.23-6.33s-1.08-4.97-3.23-6.42c-2.16-1.45-5.24-2.17-9.26-2.17h-16.3Zm31.97,34.98c0-5.96-4.46-8.94-13.37-8.94h-18.6v17.89h18.6c8.91,0,13.37-2.98,13.37-8.94Z"/>
    <path class="cls-1" d="M390.1,293.9v21.87h-11.51v-21.7l-24.35-40.3h12.31l18.16,30.2,18.33-30.2h11.34l-24.26,40.12Z"/>
  </g>
  <g>
    <path class="cls-1" d="M554.55,314.63c-4.46-1.36-7.99-3.16-10.58-5.4l3.99-8.94c2.54,2.01,5.65,3.65,9.34,4.91,3.69,1.27,7.4,1.9,11.12,1.9,4.6,0,8.04-.74,10.32-2.21,2.27-1.48,3.41-3.42,3.41-5.85,0-1.77-.64-3.23-1.91-4.38s-2.88-2.05-4.83-2.7c-1.95-.65-4.6-1.39-7.97-2.21-4.72-1.12-8.54-2.24-11.47-3.37s-5.43-2.88-7.53-5.27c-2.1-2.39-3.14-5.62-3.14-9.7,0-3.42,.93-6.54,2.79-9.34,1.86-2.8,4.66-5.03,8.41-6.69s8.34-2.48,13.77-2.48c3.78,0,7.5,.47,11.16,1.42,3.66,.94,6.82,2.3,9.48,4.07l-3.63,8.94c-2.72-1.59-5.55-2.8-8.5-3.63-2.95-.83-5.81-1.24-8.59-1.24-4.55,0-7.93,.77-10.14,2.3-2.21,1.54-3.32,3.57-3.32,6.11,0,1.77,.63,3.22,1.91,4.34,1.27,1.12,2.88,2.01,4.83,2.66,1.95,.65,4.6,1.39,7.97,2.21,4.61,1.06,8.38,2.17,11.34,3.32s5.48,2.91,7.57,5.27c2.09,2.36,3.14,5.55,3.14,9.56,0,3.42-.93,6.52-2.79,9.3-1.86,2.78-4.68,4.99-8.46,6.64-3.78,1.65-8.38,2.48-13.81,2.48-4.78,0-9.4-.68-13.86-2.04Z"/>
    <path class="cls-1" d="M645.1,301.43h-31l-6.11,14.35h-11.87l27.9-61.99h11.34l27.99,61.99h-12.04l-6.2-14.35Zm-3.81-9.03l-11.69-27.1-11.6,27.1h23.29Z"/>
  </g>
  <g>
    <path class="cls-1" d="M350.86,.05c3.19,0,6.37,0,9.56,0,.43,.06,.87,.15,1.3,.19,2.03,.16,4.06,.25,6.08,.46,2.43,.25,4.85,.54,7.26,.92,2.04,.32,4.06,.77,6.09,1.19,2.48,.51,4.91,1.18,7.34,1.9,3.25,.97,6.44,2.11,9.58,3.4,4.04,1.66,7.95,3.6,11.73,5.77,5.1,2.93,9.91,6.29,14.44,10.04,4.52,3.74,8.73,7.81,12.64,12.18,3.5,3.91,6.72,8.03,9.62,12.39,2.34,3.52,4.46,7.17,6.35,10.95,1.61,3.22,3.05,6.53,4.3,9.91,.55,1.47,1.07,2.96,1.53,4.46,.58,1.86,1.1,3.73,1.61,5.6,.36,1.35,.67,2.71,.96,4.08,.26,1.19,.49,2.39,.7,3.59,.27,1.53,.56,3.06,.74,4.61,.28,2.32,.54,4.64,.71,6.97,.18,2.5,.3,5.02,.36,7.53,.08,2.9,.03,5.8-.18,8.7-.15,2.22-.28,4.45-.53,6.66-.25,2.25-.61,4.49-.94,6.72-.37,2.43-.86,4.84-1.48,7.22-.57,2.19-1.14,4.38-1.8,6.54-.88,2.87-1.92,5.69-3.08,8.46-1.86,4.48-4.05,8.79-6.56,12.94-3.49,5.77-7.54,11.12-12.1,16.09-4.65,5.07-9.7,9.71-15.13,13.93-4.77,3.71-9.79,7.03-15.1,9.92-4.02,2.19-8.16,4.14-12.46,5.73-2.22,.82-4.46,1.57-6.71,2.3-1.38,.45-2.78,.82-4.18,1.2-1.23,.33-2.47,.63-3.71,.89-1.59,.34-3.19,.65-4.79,.92-1.69,.29-3.39,.56-5.09,.77-1.74,.21-3.48,.39-5.23,.51-2.26,.16-4.52,.29-6.78,.34-3.95,.1-7.89,0-11.82-.38-2.18-.21-4.37-.42-6.54-.72-1.87-.26-3.74-.59-5.59-.98-2.27-.47-4.53-.98-6.76-1.57-2.82-.74-5.59-1.65-8.33-2.65-3-1.1-5.95-2.34-8.83-3.72-5.55-2.67-10.83-5.82-15.84-9.42-4.16-2.99-8.1-6.24-11.84-9.73-5.78-5.39-10.97-11.29-15.55-17.72-3.37-4.73-6.32-9.71-8.85-14.94-1.3-2.69-2.48-5.43-3.53-8.22-.54-1.44-1.06-2.89-1.52-4.35-.58-1.84-1.12-3.69-1.62-5.54-.42-1.57-.8-3.15-1.13-4.74-.36-1.73-.67-3.47-.95-5.22-.29-1.8-.56-3.6-.74-5.41-.22-2.18-.37-4.37-.51-6.56-.35-5.63-.18-11.25,.31-16.86,.26-2.94,.62-5.88,1.19-8.78,.43-2.22,.83-4.45,1.37-6.65,.63-2.54,1.35-5.05,2.13-7.55,.88-2.82,1.94-5.57,3.09-8.29,1.62-3.81,3.45-7.51,5.51-11.1,3.28-5.72,7.07-11.09,11.3-16.14,4.13-4.94,8.62-9.52,13.51-13.7,5.01-4.29,10.36-8.1,16.08-11.4,3.4-1.96,6.91-3.71,10.52-5.25,2.66-1.14,5.37-2.17,8.13-3.05,1.53-.49,3.07-.96,4.61-1.4,1.15-.33,2.32-.62,3.49-.9,1.17-.28,2.34-.53,3.52-.77,1.32-.26,2.64-.51,3.96-.73,1.2-.2,2.41-.37,3.62-.52,1.63-.2,3.27-.39,4.91-.54,1.5-.13,3-.18,4.5-.29,.37-.03,.73-.12,1.09-.18Zm5.1,19.44c-4.24,.08-8.45,.35-12.65,.89-3.13,.4-6.22,.98-9.28,1.73-3.2,.79-6.34,1.74-9.42,2.91-3.91,1.48-7.69,3.24-11.33,5.29-3.51,1.97-6.84,4.21-10.03,6.65-1.99,1.53-3.92,3.15-5.77,4.85-3.87,3.54-7.44,7.36-10.73,11.46-3.22,4.01-6.11,8.24-8.62,12.73-5.45,9.7-8.81,20.08-10.16,31.12-.36,2.95-.56,5.92-.62,8.89-.09,3.95,.08,7.89,.49,11.82,.3,2.82,.73,5.61,1.3,8.38,.83,4.06,1.97,8.04,3.41,11.92,2.93,7.92,7.03,15.2,12.15,21.92,2.92,3.84,6.12,7.42,9.57,10.8,7.02,6.89,14.85,12.67,23.7,17.01,4.54,2.22,9.24,4.01,14.12,5.36,4.46,1.24,8.99,2.09,13.59,2.6,2.78,.31,5.57,.48,8.37,.54,4.62,.09,9.23-.14,13.82-.72,2.37-.3,4.72-.7,7.06-1.2,4.63-.99,9.14-2.36,13.54-4.12,5.8-2.32,11.28-5.27,16.44-8.78,5.37-3.66,10.3-7.84,14.88-12.45,2.06-2.07,4.05-4.2,5.91-6.45,2.81-3.4,5.34-7,7.56-10.82,2-3.43,3.71-7,5.18-10.69,1.4-3.54,2.53-7.17,3.42-10.87,1.01-4.2,1.7-8.46,2.07-12.77,.21-2.43,.33-4.87,.39-7.31,.15-5.74-.22-11.46-1.12-17.13-.41-2.55-.91-5.08-1.53-7.59-.7-2.8-1.54-5.56-2.53-8.27-1.99-5.45-4.54-10.63-7.61-15.56-2.89-4.62-6.2-8.92-9.86-12.94-2.38-2.62-4.91-5.1-7.57-7.44-3.22-2.84-6.6-5.45-10.18-7.81-2.1-1.39-4.25-2.68-6.47-3.86-3.62-1.94-7.37-3.62-11.24-4.99-3.15-1.11-6.36-2.05-9.62-2.78-2.59-.58-5.2-1.06-7.83-1.4-1.7-.22-3.41-.39-5.12-.51-2.54-.17-5.09-.27-7.63-.39Z"/>
    <path class="cls-1" d="M384.94,125.42h-12.32v52.33c-.43,.14-32.9,.17-33.56,.03v-52.33c-.73-.05-1.41-.02-2.09-.03-.67,0-1.34,0-2.02,0-.69,0-1.38,0-2.07,0-.67,0-1.34,0-2.02,0-.69,0-1.38,0-2.07,0-.67,0-1.34,0-2.06,0-.01-.22-.03-.39-.03-.56,0-14.44,0-28.88,0-43.32,0-2.17,.71-4.02,2.33-5.48,1.16-1.04,2.52-1.62,4.07-1.72,.37-.02,.74-.03,1.11-.03,14.48,0,28.95,0,43.43,0,3.09,0,5.28,1.46,6.69,4.15,.37,.71,.53,1.5,.58,2.3,.02,.32,.02,.64,.02,.96,0,14.33,0,28.67,0,43v.7Z"/>
    <path class="cls-1" d="M355.87,68.48c-2.09,.03-4.16-.16-6.18-.77-4.14-1.24-6.84-3.92-8.08-8.06-.88-2.94-.98-5.95-.67-8.99,.22-2.11,.72-4.14,1.73-6.03,1.23-2.3,3.08-3.94,5.46-4.98,1.72-.75,3.53-1.12,5.39-1.29,1.86-.17,3.71-.14,5.56,.1,2.27,.3,4.43,.93,6.35,2.23,1.94,1.31,3.29,3.08,4.16,5.24,.65,1.62,1.04,3.31,1.14,5.05,.08,1.36,.14,2.72,.08,4.08-.08,2.08-.46,4.11-1.28,6.04-1.22,2.85-3.26,4.89-6.12,6.09-1.93,.81-3.96,1.16-6.04,1.28-.49,.03-.99,0-1.49,0Z"/>
  </g>
  <g>
    <path class="cls-1" d="M108.03,.03c2.17,.03,4.35,.07,6.52,.1,.23,0,.47,0,.69,.05,1.18,.29,2.39,.23,3.58,.35,1.79,.18,3.58,.42,5.37,.64,.37,.04,.74,.09,1.1,.15,.56,.08,1.12,.17,1.67,.26,.14,.02,.28,.06,.42,.09,1.11,.19,2.23,.35,3.34,.57,.97,.19,1.93,.43,2.89,.65,.83,.19,1.65,.37,2.47,.57,.84,.21,1.67,.45,2.5,.68,.65,.18,1.29,.37,1.93,.56,.64,.19,1.29,.38,1.92,.58,.7,.23,1.4,.47,2.1,.71,.58,.2,1.16,.42,1.74,.64,.46,.17,.92,.36,1.38,.54,.87,.33,1.75,.64,2.62,.99,.8,.33,1.57,.71,2.36,1.06,.77,.34,1.55,.67,2.32,1.03,.7,.33,1.37,.7,2.06,1.06,.34,.18,.69,.34,1.03,.52,1.15,.61,2.31,1.2,3.44,1.83,.97,.54,1.92,1.1,2.85,1.69,.98,.61,1.94,1.26,2.91,1.9,.68,.44,1.36,.88,2.02,1.34,.75,.52,1.48,1.06,2.22,1.6,.79,.58,1.6,1.15,2.37,1.76,1.14,.89,2.29,1.77,3.38,2.71,1.75,1.51,3.49,3.04,5.18,4.61,2.49,2.3,4.87,4.7,7.08,7.28,1.06,1.25,2.16,2.46,3.2,3.73,.79,.96,1.52,1.98,2.28,2.98,.64,.86,1.29,1.72,1.91,2.59,.48,.67,.94,1.36,1.4,2.05,.54,.82,1.1,1.63,1.61,2.47,.63,1.03,1.24,2.09,1.85,3.14,.51,.88,1.02,1.76,1.51,2.65,.35,.65,.67,1.32,1.01,1.97,.36,.7,.73,1.4,1.08,2.12,.36,.75,.69,1.51,1.03,2.26,.21,.46,.44,.92,.65,1.38,.17,.37,.33,.74,.48,1.12,.34,.85,.66,1.71,1,2.56,.21,.52,.44,1.04,.64,1.56,.19,.48,.36,.96,.53,1.44,.26,.75,.53,1.49,.78,2.25,.2,.62,.37,1.25,.56,1.87,.2,.66,.42,1.31,.62,1.97,.17,.56,.34,1.11,.49,1.67,.2,.75,.37,1.51,.56,2.26,.21,.87,.43,1.75,.65,2.62,.02,.09,.06,.17,.07,.25,.19,.97,.37,1.94,.56,2.91,.21,1.09,.41,2.19,.61,3.28,.03,.14,.07,.28,.09,.42,.17,1.26,.38,2.52,.51,3.78,.22,2.06,.52,4.11,.52,6.18,0,.18,.02,.36,.07,.53,.22,.76,.23,1.54,.23,2.32,0,3.55,0,7.11,0,10.66,0,.71-.05,1.41-.21,2.11-.11,.51-.11,1.05-.13,1.58-.05,1.2-.09,2.4-.31,3.59-.07,.38-.08,.77-.12,1.16-.09,.75-.2,1.51-.3,2.26-.05,.35-.09,.7-.14,1.05-.09,.58-.18,1.15-.28,1.73-.05,.3-.09,.59-.14,.89-.08,.49-.17,.97-.26,1.46-.03,.16-.08,.31-.11,.47-.19,.99-.34,1.98-.56,2.97-.19,.88-.44,1.74-.66,2.62-.19,.75-.35,1.51-.55,2.26-.2,.77-.43,1.53-.66,2.29-.18,.59-.36,1.18-.55,1.77-.25,.77-.5,1.54-.75,2.31-.19,.59-.37,1.18-.58,1.76-.21,.58-.43,1.15-.66,1.73-.17,.43-.34,.85-.5,1.28-.33,.85-.64,1.71-1,2.56-.34,.79-.72,1.57-1.08,2.35-.34,.75-.66,1.51-1.02,2.26-.34,.7-.72,1.37-1.07,2.06-.34,.65-.66,1.32-1.01,1.97-.33,.62-.69,1.22-1.04,1.83-.33,.58-.67,1.16-1,1.73-.35,.59-.7,1.18-1.06,1.76-.51,.8-1.02,1.6-1.55,2.39-.47,.7-.97,1.38-1.45,2.07-.49,.69-.97,1.38-1.48,2.06-.47,.64-.95,1.27-1.45,1.88-.92,1.14-1.82,2.29-2.78,3.39-1.31,1.5-2.65,2.97-4.03,4.42-1.3,1.36-2.65,2.68-4.01,3.99-.97,.93-1.97,1.82-2.97,2.71-.72,.65-1.45,1.29-2.19,1.91-.98,.81-1.97,1.6-2.96,2.39-.81,.65-1.62,1.3-2.45,1.92-.88,.65-1.78,1.26-2.67,1.88-.69,.48-1.38,.97-2.08,1.44-.55,.37-1.13,.72-1.69,1.08-.54,.35-1.08,.72-1.63,1.07-.57,.35-1.15,.68-1.73,1.01-.88,.51-1.76,1.02-2.65,1.52-.64,.36-1.3,.69-1.96,1.03-.7,.37-1.39,.74-2.09,1.1-.33,.17-.65,.34-.99,.49-.72,.33-1.44,.64-2.16,.97-1.09,.5-2.17,1.01-3.26,1.5-.48,.21-.98,.38-1.48,.57-.44,.17-.89,.33-1.33,.51-.9,.35-1.79,.74-2.7,1.06-1.01,.36-2.04,.67-3.06,1.01-.64,.21-1.26,.44-1.9,.65-.45,.15-.91,.28-1.37,.41-.7,.2-1.39,.38-2.09,.57-.82,.22-1.64,.43-2.45,.65-.1,.03-.2,.07-.3,.09-.86,.19-1.73,.37-2.59,.55-1,.21-2,.43-3,.64-.26,.05-.52,.09-.78,.13-.49,.08-.97,.17-1.46,.25-.09,.02-.17,.04-.26,.06-1.38,.19-2.77,.38-4.15,.56-.56,.07-1.12,.14-1.68,.21-.39,.05-.77,.11-1.16,.14-1.23,.09-2.46,.17-3.69,.32-1.42,.17-2.86,.13-4.29,.14-2.42,.01-4.85,0-7.27-.02-.9,0-1.8-.05-2.69-.23-.6-.12-1.23-.1-1.85-.15-.84-.08-1.69-.17-2.53-.26-.19-.02-.39-.05-.58-.08-1.53-.19-3.05-.35-4.57-.58-1.13-.17-2.25-.43-3.38-.64-.99-.19-1.98-.37-2.96-.58-.84-.18-1.68-.41-2.52-.62-.82-.21-1.64-.42-2.46-.64-.65-.17-1.29-.36-1.93-.55-.79-.24-1.59-.48-2.37-.74-.59-.19-1.16-.41-1.75-.61-.52-.18-1.03-.36-1.54-.55-.66-.24-1.32-.49-1.98-.74-.41-.16-.82-.32-1.23-.48-.82-.32-1.65-.63-2.45-.98-1.1-.48-2.18-.99-3.26-1.49-.37-.17-.74-.33-1.1-.51-1.08-.54-2.16-1.09-3.24-1.64-.63-.32-1.26-.63-1.88-.97-.37-.2-.73-.42-1.09-.63-.33-.19-.67-.37-1.01-.57-.89-.53-1.78-1.06-2.66-1.6-.78-.48-1.56-.95-2.33-1.44-.66-.43-1.32-.87-1.97-1.32-.74-.51-1.47-1.03-2.19-1.56-.85-.62-1.7-1.24-2.54-1.89-1.02-.78-2.03-1.57-3.02-2.39-1.08-.9-2.16-1.82-3.2-2.77-1.58-1.44-3.14-2.9-4.68-4.39-1.14-1.11-2.22-2.27-3.32-3.43-.78-.82-1.54-1.65-2.28-2.5-1.08-1.26-2.14-2.53-3.18-3.82-.69-.84-1.37-1.7-2.02-2.57-.64-.86-1.25-1.74-1.87-2.62-.47-.66-.94-1.32-1.39-1.99-.39-.57-.75-1.15-1.12-1.72-.36-.56-.74-1.11-1.08-1.68-.36-.58-.69-1.18-1.04-1.78-.32-.55-.65-1.08-.96-1.63-.4-.7-.78-1.41-1.17-2.12-.36-.66-.74-1.32-1.08-1.99-.33-.64-.64-1.29-.95-1.94-.38-.79-.75-1.59-1.13-2.39-.17-.37-.34-.73-.5-1.11-.2-.47-.37-.95-.57-1.42-.35-.84-.73-1.68-1.07-2.53-.21-.52-.38-1.06-.57-1.59-.15-.41-.3-.83-.45-1.24-.21-.58-.44-1.15-.64-1.73-.21-.6-.39-1.21-.58-1.82-.18-.57-.35-1.15-.52-1.72-.27-.93-.53-1.86-.8-2.8-.22-.76-.45-1.52-.64-2.29-.21-.82-.38-1.65-.56-2.48-.22-1.02-.43-2.04-.64-3.06-.02-.1-.06-.2-.08-.31-.19-1.17-.37-2.34-.56-3.51-.06-.37-.11-.73-.16-1.1-.08-.59-.17-1.19-.25-1.78-.04-.32-.03-.64-.09-.95-.27-1.45-.23-2.93-.43-4.38-.57-4.18-.25-8.37-.3-12.55-.01-.85,.01-1.7,.09-2.54,.18-1.88,.41-3.76,.62-5.63,.04-.4,.07-.81,.12-1.21,.07-.58,.16-1.16,.24-1.73,.2-1.27,.38-2.55,.61-3.82,.19-1.09,.43-2.18,.65-3.27,.03-.14,.08-.27,.1-.41,.19-.9,.35-1.8,.57-2.69,.18-.77,.42-1.53,.64-2.29,.18-.63,.34-1.26,.52-1.89,.24-.83,.5-1.65,.75-2.48,.18-.61,.36-1.22,.56-1.82,.19-.59,.39-1.17,.6-1.75,.22-.63,.45-1.26,.69-1.89,.21-.54,.43-1.08,.64-1.62,.16-.39,.33-.78,.49-1.17,.34-.83,.65-1.67,1.01-2.5,.33-.77,.71-1.53,1.07-2.29,.19-.4,.36-.8,.54-1.2,.22-.46,.44-.92,.67-1.37,.16-.33,.34-.65,.5-.98,.34-.67,.66-1.36,1.02-2.02,.3-.58,.63-1.14,.95-1.7,.38-.67,.76-1.35,1.15-2.01,.34-.57,.71-1.13,1.06-1.7,.32-.51,.62-1.02,.94-1.52,.48-.76,.96-1.51,1.46-2.25,.5-.74,1.02-1.48,1.54-2.21,.61-.86,1.22-1.72,1.86-2.55,1.08-1.39,2.17-2.77,3.29-4.13,.89-1.08,1.81-2.11,2.74-3.16,2.01-2.27,4.15-4.42,6.35-6.52,1.21-1.16,2.41-2.33,3.65-3.45,1.09-.98,2.22-1.91,3.34-2.84,.96-.8,1.92-1.6,2.91-2.36,.86-.66,1.77-1.28,2.65-1.91,.64-.46,1.28-.93,1.94-1.37,.79-.53,1.59-1.04,2.38-1.56,.49-.32,.97-.64,1.47-.94,.9-.54,1.81-1.07,2.72-1.61,.61-.36,1.21-.71,1.82-1.06,.32-.18,.65-.35,.98-.52,.78-.4,1.56-.82,2.35-1.2,.71-.35,1.43-.67,2.15-1.01,.32-.15,.64-.3,.96-.45,1.12-.5,2.24-1.03,3.38-1.5,.89-.37,1.81-.68,2.72-1.02,.51-.19,1.01-.41,1.52-.6,.55-.2,1.1-.38,1.65-.56,1.21-.39,2.41-.79,3.62-1.17,.5-.16,1.02-.29,1.53-.43,.75-.2,1.5-.38,2.26-.57,.91-.23,1.81-.45,2.72-.67,.69-.16,1.37-.34,2.07-.47,1.09-.21,2.19-.38,3.29-.56,1.25-.21,2.51-.43,3.77-.61,1.01-.14,2.04-.24,3.06-.34,1.18-.11,2.36-.2,3.54-.31,.72-.07,1.43-.18,2.15-.25,.56-.05,1.13-.1,1.69-.11,1.89-.01,3.78,0,5.68,0,0-.02,0-.04,0-.06Zm84.01,80.11c-.03-.26-.05-.53-.09-.79-.02-.14-.03-.33-.12-.39-.27-.2-.24-.49-.28-.76-.03-.17-.04-.44-.14-.49-.28-.14-.22-.37-.27-.58-.04-.18-.06-.44-.18-.52-.19-.12-.19-.27-.22-.44-.05-.22-.05-.5-.19-.64-.18-.19-.22-.39-.25-.62-.07-.54-.52-.93-.54-1.48,0-.01-.02-.03-.03-.04-.31-.14-.2-.46-.3-.69-.1-.23-.26-.44-.36-.67-.21-.48-.38-.97-.59-1.45-.14-.32-.29-.63-.44-.94-.21-.42-.45-.83-.66-1.25-.2-.39-.37-.79-.56-1.18-.24-.48-.49-.96-.75-1.44-.19-.35-.39-.7-.6-1.05-.2-.34-.43-.68-.63-1.03-.37-.63-.72-1.28-1.1-1.91-.31-.52-.66-1.02-.98-1.53-.23-.37-.45-.75-.69-1.11-.47-.68-.95-1.35-1.43-2.03-.61-.86-1.19-1.73-1.84-2.56-.89-1.14-1.83-2.25-2.76-3.37-.48-.58-.95-1.18-1.45-1.74-.47-.53-.98-1.03-1.48-1.55-.99-1.03-1.96-2.08-2.99-3.08-1.25-1.21-2.54-2.38-3.83-3.55-.89-.8-1.78-1.6-2.71-2.35-1.03-.83-2.1-1.62-3.16-2.42-.85-.64-1.71-1.28-2.59-1.88-.88-.61-1.78-1.18-2.67-1.76-.76-.5-1.53-.99-2.3-1.47-.28-.18-.57-.33-.86-.49-.36-.2-.73-.4-1.09-.6-.36-.21-.71-.44-1.08-.63-.38-.2-.79-.36-1.18-.54-.06-.03-.1-.1-.16-.13-.13-.08-.27-.15-.41-.22-.15-.08-.3-.16-.45-.24-.11-.06-.21-.12-.32-.17-.41-.18-.82-.35-1.23-.53-.05-.02-.07-.08-.12-.1-.15-.08-.3-.16-.46-.23-.11-.05-.29-.02-.35-.1-.32-.44-.96-.24-1.27-.68-.57,.02-.92-.58-1.5-.54-.31-.29-.68-.41-1.1-.43-.04,0-.11-.05-.13-.09-.13-.29-.4-.25-.63-.29-.16-.03-.4,0-.45-.09-.2-.35-.53-.29-.83-.36-.08-.02-.2-.03-.24-.09-.2-.3-.51-.28-.8-.32-.12-.02-.29,0-.36-.07-.3-.31-.69-.32-1.08-.38-.09-.01-.2-.03-.25-.08-.25-.3-.6-.27-.92-.32-.14-.02-.32-.03-.39-.12-.21-.26-.49-.25-.77-.29-.21-.03-.46-.01-.61-.13-.32-.25-.68-.26-1.05-.3-.17-.02-.39-.02-.5-.12-.31-.28-.68-.26-1.04-.31-.19-.02-.43-.02-.55-.13-.23-.23-.5-.23-.78-.27-.3-.04-.64,0-.88-.13-.46-.27-.94-.27-1.43-.32-.22-.02-.44-.09-.66-.16-.22-.06-.42-.18-.64-.21-.38-.05-.78-.05-1.16-.08-.14-.01-.31,0-.4-.09-.27-.24-.58-.23-.9-.26-.41-.03-.81-.04-1.22-.07-.15-.01-.34-.02-.45-.11-.24-.2-.52-.21-.8-.23-.74-.04-1.48-.06-2.23-.09-.14,0-.32,.02-.41-.06-.38-.32-.83-.27-1.26-.29-1.24-.04-2.48-.06-3.71-.09-.12,0-.35,.01-.35-.03-.09-.33-.35-.24-.55-.24-3.06,0-6.12-.01-9.18-.01-.16,0-.35-.01-.46,.07-.32,.23-.67,.2-1.02,.21-1.27,.04-2.55,.06-3.82,.11-.2,0-.41,.08-.61,.13-.2,.05-.39,.16-.59,.18-.79,.05-1.59,.07-2.38,.12-.18,.01-.36,.09-.54,.15-.16,.05-.31,.15-.47,.17-.55,.05-1.09,.07-1.64,.11-.12,0-.32,0-.35,.07-.17,.34-.48,.23-.74,.26-.37,.04-.74,.05-1.11,.08-.12,.01-.3,.05-.33,.12-.08,.24-.27,.2-.44,.21-.39,.04-.78,.06-1.16,.09-.12,.01-.3,0-.35,.08-.26,.35-.63,.25-.97,.29-.28,.03-.56,.05-.84,.09-.07,0-.2,.08-.2,.1,.05,.26-.15,.19-.26,.2-.3,.04-.6,.06-.9,.09-.1,.01-.27,0-.3,.06-.21,.42-.6,.26-.91,.32-.22,.05-.58,0-.66,.11-.24,.41-.61,.23-.92,.32-.19,.06-.43-.02-.51,.28-.01,.05-.18,.07-.28,.1-.38,.11-.88-.13-1.14,.39-.02,.05-.17,.03-.25,.04-.25,.03-.49,.05-.74,.09-.08,.01-.24,.06-.24,.07,.04,.3-.19,.22-.34,.26-.29,.08-.59,.01-.87,.29-.19,.19-.58,.17-.89,.25-.03,0-.08,.03-.09,.05-.09,.33-.38,.25-.61,.29-.17,.03-.46,.03-.49,.12-.13,.38-.45,.24-.7,.31-.15,.04-.42,.06-.44,.13-.07,.34-.34,.22-.53,.3-.44,.18-.83,.49-1.32,.53-.08,.32-.36,.25-.58,.32-.15,.05-.28,.13-.42,.2-.11,.06-.21,.17-.31,.17-.52,0-.88,.39-1.33,.58-.53,.22-1.01,.59-1.56,.78-.08,.03-.14,.11-.22,.15-.13,.07-.27,.15-.41,.21-.11,.05-.25,.06-.34,.13-.41,.32-.9,.49-1.34,.76-.31,.19-.64,.35-.94,.54-.34,.21-.66,.45-1,.65-.57,.34-1.16,.63-1.71,.98-.78,.5-1.54,1.03-2.3,1.55-.79,.54-1.58,1.09-2.37,1.64-.5,.35-1,.7-1.49,1.05-.2,.14-.41,.27-.58,.44-.38,.39-.81,.72-1.24,1.05-.43,.33-.87,.64-1.28,.99-.7,.59-1.37,1.2-2.05,1.8-.58,.52-1.18,1.02-1.75,1.55-.51,.49-.97,1.03-1.48,1.53-.5,.49-1.03,.94-1.52,1.43-.48,.48-.92,1.01-1.38,1.5-.72,.77-1.46,1.52-2.17,2.3-.77,.85-1.52,1.7-2.25,2.58-.73,.88-1.42,1.8-2.13,2.7-.35,.45-.7,.91-1.04,1.38-.18,.25-.33,.53-.51,.79-.22,.31-.46,.59-.68,.9-.18,.26-.31,.56-.52,.79-.6,.65-.98,1.44-1.49,2.15-.09,.13-.14,.28-.23,.41-.37,.57-.77,1.12-1.12,1.7-.34,.55-.64,1.13-.97,1.69-.36,.62-.74,1.22-1.1,1.84-.15,.25-.3,.51-.42,.77-.19,.39-.34,.8-.53,1.18-.26,.53-.54,1.04-.81,1.57-.17,.34-.33,.68-.51,1.01-.21,.41-.44,.82-.65,1.23-.05,.11-.06,.24-.09,.36-.02,.07,0,.18-.05,.2-.36,.16-.31,.51-.39,.79-.02,.08-.06,.2-.11,.22-.25,.08-.21,.3-.27,.48-.17,.47-.33,.94-.5,1.41-.01,.03-.04,.06-.07,.07-.25,.07-.22,.3-.26,.48-.05,.22-.07,.44-.11,.67-.23-.11-.25,.03-.28,.18-.04,.26-.09,.52-.13,.78-.47,.11-.26,.53-.38,.81-.04,.09-.05,.28-.09,.28-.33,.04-.24,.3-.27,.49-.05,.28-.08,.56-.12,.85-.06-.04-.11-.07-.23-.14-.07,.49-.14,.95-.21,1.47-.06-.12-.09-.18-.12-.24-.03,.01-.07,.02-.1,.04-.06,.44-.12,.89-.19,1.34-.09-.05-.15-.09-.24-.15-.05,.45-.09,.86-.14,1.26-.01,.1-.05,.27-.09,.27-.29,.02-.21,.24-.23,.4-.05,.33-.08,.67-.11,1,0,.05-.02,.1-.03,.15-.07-.02-.13-.05-.23-.08-.06,.54-.12,1.07-.18,1.6-.08-.05-.14-.09-.25-.15-.06,.66-.12,1.29-.17,1.92h-.25c-.06,.65-.12,1.27-.18,1.91-.08-.05-.14-.09-.25-.15-.06,.83-.12,1.6-.17,2.41-.08-.09-.13-.15-.23-.28-.07,.94-.13,1.81-.19,2.73-.08-.11-.12-.17-.24-.33-.06,1.27-.12,2.41-.18,3.57-.08-.06-.13-.1-.24-.19-.02,.33-.04,.59-.05,.85-.04,1.27-.08,2.55-.12,3.82,0,.14-.03,.4-.04,.4-.31,0-.22,.24-.22,.38,0,2.85,0,5.69,0,8.54,0,.17-.02,.41,.08,.51,.22,.22,.17,.48,.18,.72,.05,1.2,.08,2.4,.13,3.61,0,.19-.02,.45,.09,.56,.26,.28,.22,.61,.24,.93,.04,.67,.07,1.34,.11,2.01,0,.14,0,.37,.07,.4,.31,.14,.21,.4,.23,.62,.05,.44,.07,.88,.11,1.32,.01,.14,0,.33,.08,.41,.27,.23,.22,.54,.25,.83,.04,.4,.06,.81,.1,1.22,0,.1,.05,.28,.09,.28,.28,.03,.2,.25,.22,.39,.05,.35,.06,.71,.11,1.06,.02,.15,.05,.36,.15,.43,.18,.12,.13,.27,.17,.41,.13,.52-.05,1.09,.38,1.57,.16,.18,.09,.58,.13,.88,.02,.14,.02,.34,.1,.4,.29,.19,.24,.49,.28,.75,.04,.22,0,.53,.14,.66,.25,.25,.23,.53,.28,.81,.04,.21,0,.5,.12,.61,.28,.25,.24,.56,.32,.86,.05,.18,.14,.35,.22,.52,.04,.09,.11,.18,.13,.28,.08,.39,.2,.75,.36,1.13,.19,.45,.3,.95,.5,1.42,.22,.51,.38,1.05,.57,1.58,.02,.06,.08,.12,.11,.18,.06,.12,.12,.25,.17,.38,.22,.57,.44,1.15,.67,1.72,.2,.48,.42,.96,.63,1.44,.19,.42,.37,.83,.57,1.24,.22,.48,.45,.95,.68,1.43,.21,.42,.42,.84,.64,1.25,.2,.38,.42,.76,.62,1.15,.2,.39,.35,.8,.57,1.18,.35,.62,.74,1.22,1.1,1.84,.47,.81,.93,1.63,1.4,2.45,.15,.26,.31,.51,.48,.75,.36,.53,.73,1.06,1.09,1.6,.49,.74,.96,1.5,1.47,2.22,.6,.83,1.23,1.64,1.86,2.45,.67,.88,1.34,1.77,2.03,2.64,.47,.59,.99,1.15,1.48,1.72,.6,.7,1.17,1.42,1.8,2.08,1.2,1.26,2.43,2.51,3.67,3.74,.93,.92,1.86,1.84,2.85,2.68,1.25,1.07,2.45,2.21,3.79,3.2,1.05,.77,2.05,1.6,3.08,2.4,.22,.17,.48,.3,.7,.46,.68,.49,1.33,1.01,2.02,1.48,.71,.48,1.45,.92,2.18,1.37,.89,.56,1.77,1.12,2.67,1.67,.28,.17,.58,.32,.87,.49,.36,.21,.69,.48,1.07,.64,.67,.29,1.23,.8,1.95,1.01,.33,.09,.62,.31,.92,.47,.41,.22,.82,.45,1.23,.68,.24,.13,.48,.28,.73,.39,.48,.2,.98,.37,1.46,.57,.61,.26,1.21,.54,1.81,.82,.08,.04,.14,.1,.22,.14,.15,.08,.31,.15,.47,.22,.16,.07,.33,.12,.49,.19,.19,.08,.38,.17,.58,.24,.51,.18,1.02,.35,1.53,.52,.06,.02,.11,.09,.17,.12,.14,.07,.28,.15,.43,.19,.56,.14,1.04,.51,1.63,.56,.05,0,.09,.05,.14,.07,.23,.08,.46,.17,.69,.24,.15,.05,.31,.06,.46,.11,.37,.12,.74,.22,1.09,.38,.47,.22,.98,.29,1.45,.46,.5,.18,1.03,.24,1.51,.42,.48,.18,.96,.32,1.47,.38,.07,0,.15,.02,.2,.06,.34,.29,.75,.26,1.15,.31,.28,.03,.61,.02,.82,.16,.29,.19,.59,.21,.9,.25,.3,.04,.66,0,.87,.16,.29,.22,.58,.22,.89,.25,.35,.03,.71,.06,1.06,.1,.12,.01,.23,.07,.34,.11,.16,.06,.31,.16,.47,.18,.53,.06,1.06,.08,1.59,.13,.13,.01,.31,.04,.38,.12,.15,.19,.34,.17,.53,.18,.76,.04,1.52,.08,2.28,.12,.14,0,.34,0,.41,.07,.25,.28,.58,.22,.89,.24,1.15,.05,2.3,.08,3.45,.12,.17,0,.35,.05,.52,.09,.27,.06,.54,.16,.81,.18,.42,.04,.85,.02,1.27,.03,.42,0,.85,0,1.27,.01,.42,0,.85,0,1.27,.01s.85,0,1.27,0c.44,0,.88,0,1.33-.01,.42,0,.85-.01,1.27-.02,.42,0,.85-.05,1.27-.01,.41,.03,.71-.25,1.09-.27,1.22-.06,2.44-.09,3.66-.14,.29-.01,.59-.05,.88-.07,0-.03,.02-.06,.03-.09-.06-.02-.12-.03-.19-.05,.98-.12,1.91-.17,2.84-.22,.14,0,.38,0,.4-.06,.14-.36,.44-.24,.68-.27,.46-.06,.92-.07,1.38-.1,.12,0,.32,0,.35-.05,.21-.41,.6-.24,.9-.29,.4-.07,.81-.05,1.22-.1,.08,0,.15-.13,.32-.28,.54-.05,1.21-.11,1.92-.17-.08-.1-.11-.15-.17-.23,.51-.05,.98-.09,1.45-.14,.1-.01,.28-.03,.29-.07,.08-.36,.38-.23,.59-.28,.22-.05,.46-.05,.68-.07,.08-.01,.23-.03,.24-.07,.06-.34,.34-.23,.53-.27,.24-.04,.49-.05,.74-.08,.1-.01,.27-.03,.29-.09,.09-.32,.36-.22,.56-.27,.34-.08,.75,.05,.99-.35,.03-.04,.13-.04,.2-.05,.4-.09,.86-.01,1.17-.38,.03-.03,.1-.03,.15-.04,.38-.05,.78-.05,1.07-.37,.62,.01,1.1-.42,1.68-.52,.12-.02,.29-.02,.35-.1,.39-.47,1.13-.16,1.5-.68,.03-.04,.14-.02,.2-.05,.51-.18,1.02-.35,1.53-.53,.03-.01,.06-.04,.09-.05,.2-.09,.4-.19,.61-.28,.11-.05,.24-.06,.35-.12,.43-.21,.85-.46,1.29-.66,.46-.21,.94-.38,1.41-.56,.05-.02,.09-.05,.14-.08,.45-.23,.89-.46,1.35-.69,.41-.2,.82-.39,1.23-.6,.42-.21,.83-.45,1.25-.67,.35-.19,.72-.36,1.07-.55,.42-.23,.84-.49,1.26-.73,.58-.33,1.17-.65,1.74-1,.55-.33,1.08-.71,1.62-1.05,.57-.35,1.16-.66,1.71-1.03,1.1-.75,2.18-1.53,3.25-2.32,1.19-.87,2.4-1.71,3.54-2.64,1.79-1.46,3.6-2.89,5.25-4.52,1.77-1.74,3.59-3.45,5.3-5.25,1.32-1.39,2.51-2.91,3.74-4.38,.52-.62,1.02-1.26,1.5-1.91,.52-.69,1.03-1.38,1.53-2.09,.52-.73,1.01-1.48,1.51-2.23,.16-.23,.32-.46,.47-.69,.33-.51,.67-1.02,.99-1.55,.34-.57,.63-1.17,.96-1.74,.34-.59,.72-1.15,1.07-1.74,.17-.28,.34-.57,.48-.87,.19-.41,.33-.85,.55-1.24,.31-.53,.61-1.05,.8-1.63,.02-.06,.08-.11,.11-.18,.1-.18,.19-.37,.28-.55,.06-.12,.11-.25,.17-.38,.08-.17,.16-.35,.24-.52,.08-.17,.15-.35,.23-.52,.07-.18,.14-.35,.21-.53,.04-.11,.06-.25,.14-.33,.34-.38,.26-.96,.65-1.3,.01,0,.01-.03,.01-.05,.02-.34,.2-.62,.32-.93,.18-.44,.34-.91,.51-1.36,.11-.31,.17-.64,.36-.91,.05-.07,.08-.16,.09-.25,.04-.62,.55-1.11,.49-1.76,0-.04,.04-.1,.08-.13,.25-.24,.26-.56,.31-.88,.03-.17,.09-.33,.15-.49,.09-.26,.19-.52,.26-.79,.05-.17,0-.39,.1-.51,.31-.36,.3-.78,.34-1.2,.01-.14,0-.31,.07-.41,.3-.35,.31-.77,.35-1.19,.01-.12-.02-.29,.05-.36,.38-.38,.31-.88,.37-1.34,.02-.16-.02-.35,.06-.47,.37-.53,.32-1.14,.37-1.74,.01-.12,.04-.24,.08-.35,.07-.21,.2-.41,.24-.62,.06-.42,.08-.84,.11-1.27,.01-.12,0-.29,.06-.35,.22-.21,.21-.48,.24-.73,.05-.49,.08-.99,.11-1.48,.01-.14-.02-.33,.06-.41,.26-.3,.24-.66,.27-1,.05-.65,.06-1.31,.1-1.96,0-.18-.03-.39,.05-.52,.31-.52,.27-1.09,.3-1.65,.05-1.11,.06-2.23,.09-3.34,0-.18-.02-.38,.06-.52,.23-.41,.22-.85,.22-1.29,0-2.6,0-5.2,0-7.8,0-.35,.02-.7-.21-1.02-.07-.1-.06-.27-.07-.41-.02-.67-.03-1.34-.05-2.02-.02-.72-.05-1.45-.08-2.17,0-.17-.03-.38-.13-.5-.16-.18-.17-.38-.18-.59-.04-.81-.07-1.63-.11-2.44,0-.14,0-.35-.08-.4-.3-.17-.22-.45-.24-.69-.04-.46-.05-.92-.09-1.38-.01-.14,0-.34-.09-.4-.3-.24-.23-.57-.26-.87-.03-.35-.04-.71-.07-1.06-.01-.12-.02-.29-.09-.35-.3-.22-.24-.53-.27-.82-.03-.3-.05-.6-.09-.9-.01-.1-.04-.27-.1-.28-.29-.07-.2-.29-.22-.46-.04-.33-.05-.67-.08-1,0-.1,0-.26-.07-.3-.36-.22-.25-.58-.31-.89-.04-.24,0-.58-.15-.71-.26-.23-.23-.49-.26-.75-.04-.26,.02-.64-.13-.76-.34-.28-.24-.62-.31-.95-.04-.19-.04-.46-.16-.53-.24-.14-.21-.34-.24-.54-.03-.21-.08-.42-.08-.63,0-.23-.18-.16-.29-.21Z"/>
    <path class="cls-1" d="M106.75,90.17c-.58,.32-1.11,.63-1.65,.91-.39,.2-.79,.37-1.18,.56-.39,.2-.77,.42-1.15,.62-.37,.2-.74,.39-1.11,.59-.46,.24-.92,.5-1.39,.74-.39,.2-.79,.38-1.18,.57-.3,.15-.6,.29-.89,.45-.38,.21-.76,.43-1.15,.64-.29,.16-.58,.32-.88,.47-.39,.2-.79,.37-1.18,.57-.27,.13-.53,.28-.79,.42-.39,.2-.79,.39-1.16,.62-.44,.26-.78,.21-.97-.26-.35-.85-.86-1.61-1.38-2.36-.57-.82-1.21-1.59-1.94-2.28-.63-.59-1.35-1.04-2.05-1.54-.36-.26-.81-.39-1.22-.58-.09-.04-.18-.1-.27-.15-.06-.04-.1-.11-.16-.13-.56-.19-1.12-.37-1.69-.55-.15-.05-.33-.04-.46-.12-.4-.25-.83-.28-1.28-.28-1.22,0-2.44,0-3.66,.02-.34,0-.68,.14-1.03,.22-.07,.02-.13,.08-.2,.08-.74,.01-1.39,.33-2.07,.54-.41,.13-.82,.31-1.2,.52-.57,.33-1.12,.7-1.67,1.08-.85,.58-1.54,1.34-2.17,2.14-.63,.81-1.13,1.7-1.59,2.61-.23,.45-.39,.94-.55,1.43-.23,.67-.42,1.34-.64,2.02-.03,.1-.08,.2-.09,.3-.17,1.28-.57,2.51-.56,3.82,0,.79-.19,1.58-.21,2.37-.03,1.32-.03,2.65,.02,3.98,.04,1.02,.18,2.04,.3,3.06,.03,.3,.13,.58,.2,.88,.05,.21,.11,.41,.14,.62,.06,.47,.11,.94,.33,1.38,.11,.21,.08,.49,.16,.72,.2,.56,.43,1.11,.66,1.66,.15,.35,.28,.71,.45,1.06,.49,1.04,1.09,2,1.79,2.91,.73,.95,1.58,1.8,2.59,2.46,.64,.42,1.32,.78,1.99,1.16,.09,.05,.21,.05,.3,.09,.63,.25,1.32,.35,1.95,.57,.61,.22,1.19,.28,1.8,.28,1.47,0,2.94-.01,4.4-.03,.24,0,.47,0,.68-.21,.14-.13,.43-.13,.65-.16,.35-.05,.7-.03,.99-.3,.09-.09,.26-.1,.4-.12,.24-.05,.45-.12,.67-.28,.32-.23,.71-.36,1.07-.55,1.24-.66,2.31-1.54,3.22-2.61,.37-.44,.77-.87,1.09-1.34,.37-.55,.67-1.15,1.02-1.71,.34-.54,.44-1.23,.98-1.66,.61,.03,1.07,.42,1.59,.66,.76,.35,1.5,.76,2.25,1.15,.7,.36,1.4,.73,2.1,1.1,.33,.17,.65,.34,.99,.5,.41,.2,.83,.38,1.24,.58,.83,.41,1.66,.82,2.49,1.25,.79,.41,1.57,.85,2.4,1.3-.09,.25-.13,.5-.25,.7-.8,1.36-1.67,2.69-2.62,3.95-1.08,1.43-2.31,2.7-3.6,3.93-.71,.68-1.49,1.29-2.28,1.88-.91,.69-1.85,1.34-2.81,1.96-.6,.39-1.26,.7-1.9,1.03-.72,.37-1.44,.73-2.17,1.07-.35,.16-.72,.29-1.08,.42-.58,.2-1.17,.39-1.75,.58-.18,.06-.37,.12-.55,.18-.12,.04-.22,.11-.34,.14-.62,.16-1.23,.33-1.85,.45-2.86,.54-5.74,.77-8.65,.64-1.08-.05-2.15-.12-3.23-.19-.3-.02-.6-.07-.89-.11-.63-.1-1.26-.2-1.88-.31-.28-.05-.55-.13-.82-.19-.14-.03-.27-.09-.41-.12-.77-.19-1.55-.34-2.31-.56-.57-.16-1.13-.4-1.69-.62-.46-.18-.92-.35-1.37-.55-.78-.36-1.56-.73-2.32-1.13-.62-.32-1.24-.66-1.83-1.04-.65-.41-1.29-.85-1.91-1.32-.68-.52-1.36-1.07-1.99-1.65-1.02-.94-2-1.91-2.84-3.02-.3-.41-.65-.78-.95-1.2-.4-.57-.79-1.16-1.16-1.75-.35-.57-.69-1.14-1.01-1.72-.25-.46-.47-.94-.7-1.41-.23-.47-.46-.95-.66-1.43-.22-.55-.39-1.12-.59-1.69,0-.02,0-.04,0-.05-.27-.6-.41-1.23-.57-1.86-.08-.34-.18-.68-.27-1.02-.04-.15-.02-.33-.09-.47-.27-.57-.32-1.19-.36-1.81,0-.07,0-.14-.03-.21-.51-1.55-.41-3.18-.6-4.78-.19-1.59-.15-3.21-.14-4.82,0-.95,.17-1.9,.26-2.85,.05-.48,.06-.95,.12-1.43,.07-.54,.16-1.08,.25-1.62,.04-.23,.11-.45,.13-.68,.04-.57,.1-1.12,.34-1.65,.09-.2,.07-.45,.13-.67,.06-.26,.14-.51,.21-.76,.02-.07,.06-.13,.08-.19,.19-.66,.36-1.32,.57-1.97,.16-.5,.35-.99,.55-1.48,.23-.57,.49-1.12,.74-1.68,.14-.3,.28-.61,.44-.89,.61-1.04,1.16-2.13,1.9-3.09,.76-.99,1.48-2.02,2.31-2.94,.85-.95,1.78-1.85,2.75-2.68,1-.86,2.06-1.66,3.15-2.41,1.04-.72,2.14-1.36,3.31-1.87,.82-.36,1.63-.75,2.47-1.08,.59-.23,1.2-.4,1.81-.58,.63-.18,1.26-.35,1.89-.51,1.51-.38,3.02-.7,4.59-.76,.79-.03,1.59-.16,2.38-.16,1.45,0,2.9,.07,4.35,.11,.16,0,.32,.04,.48,.04,1.19-.02,2.35,.21,3.53,.36,1,.13,1.96,.42,2.96,.58,.72,.11,1.41,.42,2.11,.65,.5,.16,1,.34,1.5,.51,.92,.31,1.8,.69,2.66,1.15,.63,.34,1.29,.65,1.91,1.02,.74,.45,1.46,.92,2.15,1.43,1.71,1.24,3.22,2.69,4.6,4.28,.92,1.05,1.75,2.16,2.49,3.34,.35,.55,.7,1.09,1.04,1.65,.09,.16,.12,.35,.16,.49Z"/>
    <path class="cls-1" d="M169.47,124.67c-.29,.54-.52,1.02-.8,1.46-.49,.75-.98,1.5-1.53,2.21-.76,.99-1.54,1.97-2.37,2.9-.74,.82-1.53,1.6-2.37,2.32-.99,.85-2.04,1.61-3.08,2.39-.52,.39-1.06,.76-1.61,1.1-.57,.35-1.16,.67-1.76,.97-.77,.39-1.55,.76-2.33,1.12-.35,.16-.71,.3-1.08,.43-.56,.2-1.13,.39-1.7,.58-.22,.07-.44,.14-.65,.21-.08,.03-.16,.09-.24,.1-.83,.18-1.65,.37-2.48,.54-.36,.08-.73,.14-1.09,.21-.26,.05-.52,.13-.78,.14-1.99,.11-3.98,.34-5.99,.21-1.18-.07-2.37-.13-3.55-.21-.3-.02-.59-.09-.89-.14-.45-.08-.91-.15-1.36-.23-.45-.09-.9-.19-1.34-.28-.09-.02-.17-.05-.25-.07-.77-.18-1.55-.34-2.31-.55-.57-.16-1.13-.4-1.69-.61-.53-.2-1.06-.38-1.57-.62-.69-.31-1.36-.65-2.03-1-.65-.34-1.29-.72-1.92-1.09-.21-.12-.39-.29-.6-.43-1.2-.77-2.32-1.65-3.37-2.62-1.15-1.06-2.23-2.2-3.14-3.48-.5-.7-1.04-1.38-1.51-2.09-.39-.59-.71-1.21-1.04-1.83-.38-.72-.74-1.44-1.08-2.17-.22-.48-.39-.98-.57-1.48-.22-.61-.44-1.22-.65-1.84-.06-.18-.12-.37-.17-.55-.09-.32-.18-.64-.27-.97-.01-.05-.05-.1-.06-.15-.17-.85-.35-1.69-.51-2.54-.1-.5-.18-1.01-.26-1.51-.04-.24-.11-.49-.12-.73-.13-1.66-.27-3.31-.37-4.97-.11-1.81,.01-3.61,.22-5.4,0-.05,.02-.1,.02-.16,0-1.46,.33-2.87,.53-4.31,.03-.23,.09-.45,.15-.67,.04-.15,.11-.3,.14-.45,.19-.79,.35-1.58,.57-2.36,.17-.61,.41-1.2,.63-1.79,.17-.45,.33-.89,.53-1.32,.39-.85,.78-1.69,1.2-2.52,.32-.64,.66-1.29,1.05-1.89,.55-.84,1.14-1.65,1.75-2.45,.99-1.31,2.13-2.5,3.34-3.6,.93-.84,1.94-1.58,2.94-2.33,.68-.51,1.38-.97,2.11-1.41,.65-.39,1.32-.73,2-1.06,.79-.38,1.6-.74,2.41-1.07,.6-.24,1.23-.43,1.86-.61,.73-.22,1.45-.44,2.19-.6,1.12-.24,2.25-.47,3.38-.63,.84-.12,1.69-.09,2.54-.16,1.79-.15,3.57-.06,5.35,.09,.14,.01,.28,.03,.42,.03,1.03-.01,2.03,.15,3.05,.3,1.07,.16,2.1,.45,3.17,.6,.27,.04,.53,.19,.8,.27,.67,.2,1.36,.36,2.03,.57,.52,.17,1.02,.39,1.52,.6,.45,.19,.91,.38,1.35,.6,.72,.36,1.44,.73,2.15,1.12,.55,.31,1.09,.64,1.62,.99,1.03,.68,2.02,1.42,2.9,2.28,.92,.9,1.82,1.82,2.67,2.78,.57,.64,1.06,1.35,1.57,2.05,.36,.5,.71,1.01,1.03,1.53,.29,.48,.53,.98,.79,1.48,.04,.09,.04,.2,.06,.27-.54,.31-1.04,.62-1.56,.9-.38,.21-.79,.36-1.18,.56-.39,.2-.76,.42-1.15,.63-.35,.19-.71,.39-1.06,.58-.46,.25-.92,.5-1.39,.74-.39,.2-.79,.38-1.18,.58-.34,.17-.69,.34-1.03,.53-.37,.2-.71,.44-1.08,.63-.92,.48-1.85,.93-2.77,1.41-.34,.18-.7,.34-1.01,.56-.59,.41-.76,.3-1.07-.31-.6-1.19-1.32-2.28-2.15-3.3-.82-1.01-1.76-1.9-2.9-2.56-.53-.3-1.09-.55-1.59-.86-.48-.3-1.01-.37-1.49-.62-.59-.3-1.3-.48-1.97-.52-1.41-.08-2.83-.02-4.24-.02-.09,0-.18,0-.26,.03-.65,.16-1.27,.42-1.95,.43-.78,.44-1.67,.58-2.44,1.08-.48,.31-1.01,.56-1.45,.93-.54,.47-1.06,.96-1.58,1.46-.62,.6-1.06,1.35-1.53,2.07-.21,.32-.4,.67-.53,1.03-.34,.88-.69,1.76-1,2.66-.28,.81-.26,1.68-.65,2.45-.02,.05-.03,.1-.03,.16-.08,1.8-.58,3.56-.48,5.38,.06,1.18,0,2.37,.02,3.55,0,.71,.07,1.41,.27,2.1,.12,.4,.11,.84,.14,1.26,.03,.41,.04,.8,.27,1.17,.11,.18,.11,.44,.13,.67,.04,.35,.03,.71,.29,1,.02,.02,.04,.06,.04,.1,.02,.61,.35,1.13,.53,1.7,.14,.43,.31,.86,.53,1.26,.33,.62,.73,1.2,1.07,1.81,.49,.87,1.13,1.62,1.84,2.3,.58,.56,1.22,1.06,1.87,1.54,.38,.27,.83,.45,1.26,.65,.48,.24,.97,.46,1.47,.68,.13,.06,.27,.06,.41,.08,.4,.05,.81,.04,1.15,.32,.1,.09,.3,.09,.46,.09,1.8,0,3.61,0,5.41,0,.2,0,.39-.12,.59-.18,.27-.07,.54-.15,.81-.2,.29-.05,.61,0,.83-.28,.03-.04,.09-.05,.14-.06,.98-.21,1.8-.74,2.63-1.26,1.07-.65,1.92-1.52,2.76-2.43,.8-.86,1.36-1.88,1.97-2.86,.22-.36,.38-.75,.53-1.14,.16-.41,.4-.58,.81-.43,.44,.16,.86,.39,1.29,.6,.46,.22,.91,.46,1.36,.69,.28,.14,.57,.28,.85,.42,.44,.23,.87,.46,1.3,.69,.31,.16,.62,.32,.94,.47,.71,.34,1.43,.66,2.14,1.01,.67,.34,1.33,.71,2,1.05,.41,.21,.83,.38,1.23,.59,.59,.3,1.17,.62,1.84,.97Z"/>
  </g>
  <g>
    <path class="cls-1" d="M711.65,103.05v10.06c-.04,.49-.08,.98-.12,1.47-.17,2.32-.29,4.65-.54,6.97-.24,2.23-.57,4.45-.94,6.65-.39,2.28-.83,4.55-1.36,6.79-.46,1.99-1.04,3.95-1.6,5.92-.79,2.8-1.78,5.54-2.86,8.24-1.46,3.65-3.13,7.2-5.01,10.66-2.78,5.11-6,9.93-9.61,14.48-3.22,4.06-6.72,7.86-10.48,11.43-4.94,4.68-10.22,8.95-15.89,12.72-4.97,3.31-10.18,6.19-15.63,8.61-2.72,1.21-5.49,2.3-8.31,3.27-1.33,.46-2.67,.91-4.03,1.29-2,.56-4.02,1.09-6.04,1.58-1.45,.36-2.92,.69-4.39,.95-2,.36-4,.68-6.01,.94-2.42,.3-4.84,.58-7.27,.74-2.61,.17-5.22,.23-7.83,.26-4.31,.06-8.61-.2-12.89-.68-2.24-.25-4.48-.59-6.7-.99-2.2-.39-4.41-.82-6.58-1.36-2.49-.62-4.97-1.34-7.42-2.11-3.21-1.01-6.34-2.24-9.42-3.61-4.37-1.94-8.58-4.18-12.65-6.7-5.11-3.17-9.91-6.75-14.46-10.68-3.47-3.01-6.77-6.19-9.87-9.58-3.79-4.15-7.3-8.52-10.45-13.18-3.31-4.89-6.21-10-8.6-15.4-.95-2.14-1.84-4.31-2.66-6.5-.74-1.98-1.38-4-1.99-6.02-.55-1.84-1.02-3.7-1.48-5.57-.36-1.47-.7-2.95-.97-4.44-.36-1.98-.68-3.96-.93-5.96-.3-2.42-.58-4.84-.75-7.27-.17-2.53-.22-5.08-.26-7.62-.06-4.38,.2-8.75,.68-13.11,.25-2.26,.59-4.51,.99-6.75,.39-2.22,.83-4.44,1.36-6.63,.53-2.17,1.17-4.32,1.8-6.47,.85-2.89,1.91-5.72,3.06-8.5,1.66-4.03,3.58-7.93,5.75-11.71,4.11-7.18,9.01-13.79,14.54-19.92,4.4-4.87,9.2-9.32,14.36-13.36,3.98-3.11,8.15-5.93,12.54-8.45,3.37-1.93,6.83-3.68,10.4-5.18,2.06-.86,4.15-1.66,6.26-2.41,1.86-.66,3.75-1.24,5.64-1.8,1.38-.41,2.79-.77,4.19-1.11,1.22-.3,2.44-.56,3.67-.8,1.26-.25,2.53-.49,3.8-.7,1.18-.19,2.37-.36,3.56-.51,1.61-.2,3.22-.4,4.84-.54,1.48-.13,2.96-.19,4.44-.29,3.1-.2,6.21-.21,9.32-.12,2.91,.08,5.82,.23,8.72,.56,1.53,.17,3.05,.31,4.57,.53,1.52,.21,3.03,.47,4.54,.75,1.87,.35,3.74,.71,5.59,1.16,1.97,.47,3.92,1.04,5.87,1.59,2.51,.72,4.96,1.59,7.4,2.53,3.97,1.53,7.82,3.31,11.55,5.34,4.6,2.49,8.98,5.32,13.15,8.48,3.41,2.58,6.66,5.35,9.76,8.29,4.67,4.43,8.99,9.18,12.87,14.32,3.43,4.54,6.48,9.32,9.11,14.37,1.44,2.77,2.78,5.58,3.93,8.49,.77,1.97,1.53,3.94,2.21,5.94,.66,1.95,1.23,3.94,1.79,5.92,.42,1.49,.78,3,1.1,4.52,.43,2,.84,4.01,1.18,6.02,.29,1.74,.5,3.49,.71,5.24,.31,2.52,.54,5.05,.61,7.6,.01,.46,.07,.91,.11,1.37Zm-108.23-83.56c-2.79,.03-6.01,.16-9.23,.48-2.67,.27-5.33,.64-7.96,1.14-4.43,.84-8.76,2.03-13,3.58-7.2,2.64-13.89,6.25-20.08,10.78-3.89,2.84-7.51,5.98-10.9,9.39-4.85,4.86-9.25,10.1-13.03,15.84-5.83,8.83-9.93,18.39-12.14,28.75-.92,4.29-1.51,8.62-1.76,13-.29,5.05-.23,10.09,.32,15.13,.21,1.88,.43,3.75,.74,5.61,.54,3.29,1.29,6.54,2.23,9.74,1.29,4.4,2.94,8.65,4.95,12.77,3.22,6.58,7.25,12.64,12.01,18.2,6.53,7.62,13.91,14.27,22.42,19.64,4.52,2.85,9.27,5.25,14.26,7.18,5.51,2.13,11.2,3.65,17.04,4.57,2.84,.45,5.7,.77,8.57,.94,4.27,.25,8.54,.25,12.81-.06,2.98-.21,5.94-.57,8.88-1.08,3.99-.69,7.9-1.66,11.75-2.92,6.8-2.22,13.19-5.28,19.22-9.13,6.25-3.98,11.92-8.68,17.14-13.94,3.09-3.11,5.98-6.39,8.59-9.92,2.25-3.04,4.28-6.22,6.08-9.55,1.96-3.62,3.63-7.38,4.99-11.27,1.12-3.22,2.06-6.49,2.78-9.82,.59-2.71,1.08-5.44,1.39-8.19,.21-1.86,.39-3.72,.5-5.59,.13-2.38,.25-4.76,.24-7.14,0-3.72-.21-7.44-.67-11.15-.29-2.33-.63-4.65-1.09-6.95-.65-3.31-1.5-6.57-2.55-9.78-1.23-3.75-2.71-7.39-4.46-10.92-1.9-3.82-4.08-7.46-6.54-10.94-1.5-2.12-3.09-4.17-4.77-6.15-1.75-2.06-3.61-4.02-5.5-5.95-5.43-5.53-11.39-10.39-18.04-14.39-7.91-4.75-16.37-8.07-25.4-9.96-3.42-.72-6.88-1.23-10.36-1.56-2.99-.28-5.99-.39-9.43-.4Z"/>
    <path class="cls-1" d="M554.94,125.25h27.13c.03,.22,.07,.44,.08,.67,.1,1.88,.41,3.72,.93,5.52,.97,3.37,2.7,6.28,5.42,8.54,1.84,1.53,3.94,2.59,6.2,3.35,3.03,1.01,6.15,1.43,9.31,1.52,1.43,.04,2.86,.05,4.28-.08,2.91-.26,5.67-1.11,8.22-2.57,3.21-1.84,5.72-4.39,7.8-7.41,2.62-3.8,4.29-8.01,5.34-12.48,.44-1.89,.78-3.8,1-5.73,.4-3.58,.52-7.18,.38-10.78-.1-2.42-.27-4.83-.62-7.22-.4-2.73-.96-5.42-1.84-8.03-1.18-3.55-2.84-6.84-5.31-9.68-2.58-2.96-5.75-5.02-9.53-6.13-1.77-.52-3.57-.81-5.41-.93-2.6-.17-5.18,0-7.76,.34-1.93,.26-3.82,.71-5.64,1.39-2.82,1.05-5.32,2.58-7.39,4.8-1.99,2.13-3.34,4.62-4.27,7.36-.5,1.46-1.01,3.69-1.15,5.12,2.57,.01,5.13,0,7.72,0-.19,.36-20.67,20.91-21.22,21.32-7.09-7.09-14.17-14.18-21.28-21.28,.1-.1,.3-.03,.48-.03,2.31,0,4.62,0,6.94,0,.28,0,.56,0,.86,0,.09-.5,.18-.94,.26-1.39,.83-4.91,2.21-9.66,4.3-14.19,2.62-5.69,6.24-10.64,10.98-14.76,4.38-3.81,9.3-6.68,14.79-8.59,2.84-.99,5.75-1.68,8.73-2.12,4.42-.66,8.85-.74,13.31-.44,2.65,.17,5.27,.5,7.87,.99,3.21,.61,6.35,1.49,9.4,2.67,2.13,.82,4.18,1.79,6.18,2.9,2.92,1.63,5.65,3.55,8.17,5.75,2.45,2.14,4.67,4.51,6.69,7.07,3.24,4.1,5.83,8.57,7.78,13.42,1.05,2.61,1.91,5.28,2.58,8,.5,2.06,.89,4.14,1.21,6.23,.52,3.52,.76,7.05,.79,10.6,.02,2.63-.09,5.26-.35,7.88-.24,2.44-.61,4.87-1.12,7.27-.49,2.31-1.13,4.59-1.9,6.83-1.39,4-3.2,7.8-5.47,11.37-3.47,5.46-7.73,10.21-12.84,14.18-4.04,3.14-8.46,5.61-13.26,7.4-3.28,1.22-6.66,2.11-10.11,2.7-2.25,.38-4.51,.67-6.78,.75-2.1,.07-4.2,.14-6.3,.11-2.01-.03-4.01-.24-6.01-.53-2.4-.35-4.75-.86-7.07-1.55-5.68-1.69-10.84-4.4-15.51-8.05-3.85-3.01-7.1-6.55-9.72-10.68-2.58-4.07-4.41-8.47-5.67-13.11-.65-2.39-1.15-4.8-1.5-7.25-.04-.3-.1-.59-.14-.89,0-.03,.02-.07,.05-.14Z"/>
  </g>
</svg>