<svg xmlns="http://www.w3.org/2000/svg" viewBox="0 0 51.65 18.39"><defs><style>.cls-1,.cls-2{fill:#9d9d9c;}.cls-2{stroke:#9d9d9c;stroke-linecap:round;stroke-linejoin:round;}</style></defs><g id="Layer_2" data-name="Layer 2"><g id="timeline_view"><g id="timeline_view-2" data-name="timeline_view"><path class="cls-1" d="M23.6,5.66h1.25L29,11V5.66h1.33v7.7H29.18L24.93,7.88v5.48H23.6Z"/><path class="cls-1" d="M32.84,5.66h5.71V6.87H34.19v2h3.86v1.21H34.19v2.07H38.6v1.21H32.84Z"/><path class="cls-1" d="M40.16,5.66h1.47l1.83,5.71,1.9-5.73H46.5l1.89,5.73,1.84-5.71h1.42L49,13.41H47.8L45.91,7.88,44,13.41H42.85Z"/><polygon class="cls-2" points="17.89 9.2 13.21 10.86 15.34 15.34 10.86 13.21 9.2 17.89 7.53 13.21 3.05 15.34 5.18 10.86 0.5 9.2 5.18 7.53 3.05 3.05 7.53 5.18 9.2 0.5 10.86 5.18 15.34 3.05 13.21 7.53 17.89 9.2"/></g></g></g></svg>