<svg id="fortepan-logo" xmlns="http://www.w3.org/2000/svg" width="223.851" height="40.038" viewBox="0 0 223.851 40.038">
    <path id="Path_1" data-name="Path 1" d="M8.6,29.088V27.942a12.694,12.694,0,0,1,.362-1.448,9.666,9.666,0,0,1,1.448-3.861,7,7,0,0,1,1.629-1.87A30.566,30.566,0,0,1,15.3,18.593a15.927,15.927,0,0,1,2.292-1.086L20.544,16.3c1.206-.543,2.594-.965,3.861-1.448,1.629-.664,3.257-1.206,5.007-1.87,1.689-.6,2.956-1.025,4.464-1.629,1.448-.543,2.654-1.025,3.981-1.508.724-.3,1.448-.543,2.111-.784A13.339,13.339,0,0,1,43.405,8.7a7.962,7.962,0,0,1,2.353.362c1.146.362,2.292.9,3.438,1.327s2.353.965,3.438,1.387L56.073,13.1l4.1,1.568c1.448.543,2.835,1.086,4.283,1.689a37.858,37.858,0,0,1,4.765,2.232A20.439,20.439,0,0,1,73.2,21.367a9.3,9.3,0,0,1,1.387,1.749,9.494,9.494,0,0,1,1.146,3.076,8.335,8.335,0,0,1,.181,2.111,10.574,10.574,0,0,1-.241,2.775,9.855,9.855,0,0,1-.9,2.654,11.4,11.4,0,0,1-2.051,2.775,11.1,11.1,0,0,1-1.327,1.025c-.784.422-1.508.9-2.353,1.327-.784.362-1.508.724-2.292,1.025-1.448.664-2.956,1.206-4.464,1.749l-7.3,2.9L49.8,46.582c-1.025.422-2.111.844-3.2,1.327a10.506,10.506,0,0,1-2.775.784,9.679,9.679,0,0,1-1.87,0,11.2,11.2,0,0,1-2.051-.362c-.664-.241-1.327-.483-1.991-.784C36.71,47,35.382,46.521,34.176,46.1c-1.629-.543-3.257-1.206-4.886-1.87-1.387-.543-2.775-1.086-4.1-1.629-1.146-.422-2.292-.844-3.438-1.206s-2.111-.844-3.2-1.206A31.192,31.192,0,0,1,14.692,38.5a16.56,16.56,0,0,1-4.1-3.257,5.338,5.338,0,0,1-.724-1.025,10.956,10.956,0,0,1-.844-2.353,10.431,10.431,0,0,1-.422-1.87,1.174,1.174,0,0,0,0-.9Z" transform="translate(-8.6 -8.7)" fill="{{ theme.color }}"/>
    <path id="Path_2" data-name="Path 2" d="M60.029,32.239h5.007a.917.917,0,0,0,.9-.844A4.273,4.273,0,0,1,66,30.55h2.172c.241,0,.241,0,.241.241v6.153a.285.285,0,0,1-.3.3H65.88V35.858a.745.745,0,0,0-.241-.483,1.274,1.274,0,0,0-.6-.241H59.908v7.239a1.222,1.222,0,0,0,1.025,1.146h.9c.3,0,.181,0,.181.181v2.232c0,.241,0,.3-.3.3H55.444c-.181,0-.241,0-.241-.241V43.579a5.943,5.943,0,0,0,1.025-.121,1.065,1.065,0,0,0,.9-1.146V25.241a1.479,1.479,0,0,0-.362-.965,1.085,1.085,0,0,0-.543-.362,4.889,4.889,0,0,0-1.327,0,.285.285,0,0,1-.3-.3V21.321a.13.13,0,0,1,.121-.121H68.353v.121c0,1.749.121,3.2.121,5.007,0,.241,0,.3-.3.362H65.578a.285.285,0,0,1-.3-.3V24.638c.06-.121-.06-.362-.181-.362a2.3,2.3,0,0,0-.6-.181H60.15a.259.259,0,0,0-.241.241v7.781c.121-.06.121.06.121.121Z" transform="translate(-26.852 -13.66)" fill="#fff"/>
    <g id="Group_1" data-name="Group 1" transform="translate(82.459 13.331)">
        <path id="Path_3" data-name="Path 3" d="M145.3,31h8.324v2.172h-5.73v3.318h5.429v2.172h-5.429v5.369H145.3V31Z" transform="translate(-145.3 -30.879)" fill="{{ theme.color }}"/>
        <path id="Path_4" data-name="Path 4" d="M177.942,37.435c0,3.74-1.81,6.756-5.911,6.756s-5.73-3.137-5.73-6.816c0-3.2,1.749-6.575,5.911-6.575,3.921,0,5.73,3.137,5.73,6.635Zm-8.927-.06c0,2.594,1.025,4.645,3.137,4.645,2.232,0,3.076-1.93,3.076-4.645,0-2.413-.844-4.524-3.137-4.524-2.172.06-3.076,2.051-3.076,4.524Z" transform="translate(-153.633 -30.8)" fill="{{ theme.color }}"/>
        <path id="Path_5" data-name="Path 5" d="M196.794,38.721V44.09H194.2V31h5.308c2.473,0,4.222,1.206,4.222,3.559a2.994,2.994,0,0,1-2.051,3.076c1.267.483,1.749,1.508,1.749,3.137v.362a19.248,19.248,0,0,0,.181,2.956h-2.533a10.971,10.971,0,0,1-.241-3.016v-.362c0-1.508-.543-1.991-2.232-1.991Zm0-2.111h1.991c1.267,0,2.292-.362,2.292-1.81,0-1.206-.844-1.629-1.93-1.629h-2.353V36.61Z" transform="translate(-164.703 -30.879)" fill="{{ theme.color }}"/>
        <path id="Path_6" data-name="Path 6" d="M220.359,33.372H216.8V31.2h9.772v2.172h-3.559V44.229h-2.654S220.359,33.372,220.359,33.372Z" transform="translate(-173.671 -30.959)" fill="{{ theme.color }}"/>
        <path id="Path_7" data-name="Path 7" d="M248.824,38.459h-5.67v3.559h6.213l-.3,2.172H240.5V31.1h8.505v2.172h-5.911v2.956h5.67l.06,2.232Z" transform="translate(-183.075 -30.919)" fill="{{ theme.color }}"/>
        <path id="Path_8" data-name="Path 8" d="M263.1,31h4.826c2.473,0,4.584,1.267,4.584,3.861,0,2.654-1.991,4.1-4.826,4.1h-1.93v5.007H263.1V31Zm2.654,5.972H267.5c1.448,0,2.292-.483,2.292-1.93,0-1.267-.9-1.87-2.172-1.87h-1.87v3.8Z" transform="translate(-192.042 -30.879)" fill="{{ theme.color }}"/>
        <path id="Path_9" data-name="Path 9" d="M286.5,41.093l-.9,3.137H283c.181-.483,3.8-12.486,3.981-13.029h3.438l4.222,13.029h-2.835l-.965-3.137Zm3.8-2.232c-.844-2.654-1.387-4.524-1.689-5.73h0c-.3,1.448-.9,3.5-1.568,5.73Z" transform="translate(-199.938 -30.959)" fill="{{ theme.color }}"/>
        <path id="Path_10" data-name="Path 10" d="M309.6,44.09V31h3.378c3.861,7.9,4.524,9.229,4.705,9.893h.06a56.363,56.363,0,0,1-.181-5.851V31h2.473V44.09h-3.257c-4.162-8.747-4.584-9.772-4.826-10.255h0c.121,1.629.121,3.861.121,6.213V44.09Z" transform="translate(-210.493 -30.879)" fill="{{ theme.color }}"/>
        <path id="Path_11" data-name="Path 11" d="M351.314,31V44.09H348.6V31Z" transform="translate(-225.968 -30.879)" fill="{{ theme.color }}"/>
        <path id="Path_12" data-name="Path 12" d="M363.9,41.093l-.9,3.137H360.4c.181-.483,3.8-12.486,3.981-13.029h3.438l4.222,13.029h-2.775l-.965-3.137Zm3.8-2.232c-.845-2.654-1.387-4.524-1.689-5.73h0c-.3,1.448-.9,3.5-1.568,5.73Z" transform="translate(-230.65 -30.959)" fill="{{ theme.color }}"/>
    </g>
</svg>
