<?xml version="1.0" encoding="UTF-8"?>
<svg id="Layer_1" data-name="Layer 1" xmlns="http://www.w3.org/2000/svg" viewBox="0 0 180 36">
  <defs>
    <style>
      .cls-1, .cls-2 {
        stroke-width: 0px;
        fill: {{ theme.color }};
      }

      .cls-2 {
        fill: #fff;
      }
    </style>
  </defs>
  <g id="Fortepan_US_Desktop_Logo" data-name="Fortepan US Desktop Logo">
    <path id="Path_93" data-name="Path 93" class="cls-1" d="M1.94,18.27v-.83c.07-.36.15-.71.26-1.05.15-1,.5-1.95,1.05-2.8.31-.52.71-.98,1.19-1.36.75-.58,1.54-1.1,2.36-1.58.53-.31,1.09-.57,1.66-.79l2.15-.88c.88-.39,1.88-.7,2.8-1.05,1.18-.48,2.36-.88,3.64-1.36,1.23-.44,2.15-.74,3.24-1.18,1.05-.39,1.93-.74,2.89-1.1.53-.22,1.05-.39,1.53-.57.82-.2,1.66-.28,2.5-.26.58,0,1.16.09,1.71.26.83.26,1.67.66,2.5.96s1.71.7,2.5,1.01l2.5.96,2.98,1.14c1.05.39,2.06.79,3.11,1.23,1.19.46,2.35,1,3.46,1.62,1.04.56,2,1.23,2.88,2.02.39.38.72.81,1.01,1.27.4.69.69,1.45.83,2.23.11.5.15,1.02.13,1.53.03.68-.03,1.35-.17,2.01-.13.67-.35,1.32-.66,1.93-.39.74-.89,1.42-1.49,2.01-.3.27-.62.52-.96.75-.57.31-1.1.66-1.71.96-.57.26-1.1.53-1.67.75-1.05.48-2.15.88-3.24,1.27l-5.3,2.1-3.77,1.49c-.74.31-1.53.61-2.32.96-.64.28-1.32.47-2.01.57-.45.04-.91.04-1.36,0-.5-.04-1-.13-1.49-.26-.48-.17-.96-.35-1.45-.57-.88-.39-1.84-.74-2.72-1.05-1.18-.39-2.36-.88-3.55-1.36-1.01-.39-2.01-.79-2.98-1.18-.83-.31-1.66-.61-2.5-.88s-1.53-.61-2.32-.88c-.96-.35-1.9-.76-2.8-1.23-1.11-.63-2.12-1.42-2.98-2.36-.2-.23-.38-.48-.53-.75-.27-.54-.47-1.12-.61-1.71-.14-.44-.25-.9-.31-1.36.09-.21.09-.45,0-.66Z"/>
    <path id="Path_94" data-name="Path 94" class="cls-2" d="M25.23,16.95h3.85c.37,0,.67-.28.7-.65,0-.22,0-.43.05-.65h1.67q.18,0,.18.18v4.73c0,.12-.08.22-.21.23,0,0-.02,0-.03,0h-1.72v-1.07c-.01-.14-.08-.27-.19-.37-.14-.1-.3-.16-.46-.18h-3.94v5.56c.02.44.35.81.79.88h.7c.23,0,.14,0,.14.14v1.72c0,.19,0,.23-.23.23h-4.83c-.14,0-.19,0-.19-.19v-1.86c.26,0,.53-.04.79-.09.43-.06.74-.45.7-.88v-13.12c0-.27-.1-.54-.28-.74-.11-.13-.25-.23-.42-.28-.34-.05-.68-.05-1.02,0-.12,0-.22-.08-.23-.21,0,0,0-.02,0-.03v-1.76s.04-.09.09-.09h10.47v.09c0,1.34.09,2.46.09,3.85,0,.18,0,.23-.23.28h-1.99c-.12,0-.22-.08-.23-.21,0,0,0-.02,0-.03v-1.34c.05-.09-.05-.28-.14-.28-.15-.07-.3-.11-.46-.14h-3.34c-.1,0-.18.09-.19.18v5.98c.09-.05.09.05.09.09h0Z"/>
  </g>
  <g>
    <path class="cls-1" d="M62.69,13.64h6.15v1.62h-4.23v2.43h3.97v1.59h-3.97v3.96h-1.92v-9.6Z"/>
    <path class="cls-1" d="M80.71,18.4c0,2.76-1.33,4.98-4.36,4.98s-4.23-2.28-4.23-5.01c0-2.36,1.29-4.86,4.36-4.86,2.9,0,4.22,2.3,4.22,4.88ZM74.15,18.38c0,1.92.76,3.44,2.28,3.44,1.67,0,2.27-1.42,2.27-3.43,0-1.77-.59-3.33-2.3-3.33-1.59,0-2.25,1.46-2.25,3.31Z"/>
    <path class="cls-1" d="M86.58,19.28v3.96h-1.92v-9.6h3.91c1.81,0,3.11.9,3.11,2.6,0,1.31-.69,1.94-1.49,2.24.95.37,1.29,1.12,1.29,2.31v.25c0,.85.05,1.66.13,2.2h-1.89c-.14-.4-.18-1.05-.18-2.23v-.25c0-1.1-.4-1.48-1.65-1.48h-1.31ZM86.58,17.72h1.46c.93,0,1.7-.25,1.7-1.31,0-.89-.64-1.21-1.43-1.21h-1.73v2.53Z"/>
    <path class="cls-1" d="M97.45,15.26h-2.6v-1.62h7.17v1.62h-2.6v7.98h-1.97v-7.98Z"/>
    <path class="cls-1" d="M111.58,19.05h-4.17v2.58h4.61l-.24,1.6h-6.28v-9.6h6.25v1.62h-4.35v2.17h4.17v1.62Z"/>
    <path class="cls-1" d="M115.65,13.64h3.53c1.81,0,3.39.93,3.39,2.87s-1.47,3.02-3.55,3.02h-1.41v3.7h-1.96v-9.6ZM117.61,17.99h1.29c1.04,0,1.69-.39,1.69-1.44,0-.96-.67-1.35-1.63-1.35h-1.35v2.8Z"/>
    <path class="cls-1" d="M127.2,20.96l-.68,2.28h-1.92c.13-.37,2.79-9.17,2.93-9.6h2.53l3.08,9.6h-2.05l-.73-2.28h-3.17ZM129.98,19.34c-.6-1.95-1.01-3.32-1.23-4.21h-.02c-.23,1.07-.67,2.56-1.17,4.21h2.41Z"/>
    <path class="cls-1" d="M136.57,23.24v-9.6h2.5c2.85,5.85,3.31,6.8,3.46,7.25h.03c-.1-1.14-.11-2.71-.11-4.28v-2.98h1.79v9.6h-2.4c-3.06-6.43-3.4-7.2-3.54-7.56h-.01c.07,1.21.08,2.87.08,4.59v2.97h-1.78Z"/>
    <path class="cls-1" d="M161.86,19.66c0-1.63.03-3.58.07-4.66h-.08c-.43,1.99-1.41,5.53-2.24,8.25h-1.69c-.62-2.29-1.62-6.32-2.01-8.27h-.08c.08,1.12.12,3.2.12,4.85v3.42h-1.8v-9.6h2.92c.69,2.24,1.55,5.59,1.81,7.04h.02c.21-1.24,1.31-4.77,2.02-7.04h2.81v9.6h-1.88v-3.58Z"/>
    <path class="cls-1" d="M170.1,13.64v9.6h-1.96v-9.6h1.96Z"/>
  </g>
</svg>
